<?xml version="1.0" encoding="UTF-8"?>
<svg width="485px" height="430px" viewBox="0 0 485 430" version="1.1" xmlns="http://www.w3.org/2000/svg" xmlns:xlink="http://www.w3.org/1999/xlink">
    <!-- Generator: Sketch 55.1 (78136) - https://sketchapp.com -->
    <title>Artboard Copy</title>
    <desc>Created with Sketch.</desc>
    <defs>
        <polygon id="path-1" points="0 0.0881682091 476.575332 0.0881682091 476.575332 428 0 428"></polygon>
    </defs>
    <g id="Artboard-Copy" stroke="none" stroke-width="1" fill="none" fill-rule="evenodd">
        <g id="Group-10">
            <g id="Group-3" transform="translate(0.000000, 0.912000)">
                <mask id="mask-2" fill="white">
                    <use xlink:href="#path-1"></use>
                </mask>
                <g id="Clip-2"></g>
                <path d="M131.084,427.7655 C130.113,428.2845 128.896,427.9135 128.377,426.9435 L0.234,186.8975 C-0.284,185.9265 0.086,184.7085 1.057,184.1915 L345.491,0.3225 C346.462,-0.1955 347.68,0.1745 348.198,1.1445 L476.341,241.1905 C476.859,242.1615 476.489,243.3785 475.519,243.8965 L131.084,427.7655 Z" id="Fill-1" fill="#00BCD4" mask="url(#mask-2)"></path>
            </g>
            <path d="M113.8526,415.9266 C112.8116,416.2806 111.6696,415.7166 111.3166,414.6746 L23.9756,156.9646 C23.6236,155.9236 24.1866,154.7816 25.2276,154.4286 L395.0076,29.1056 C396.0496,28.7526 397.1916,29.3166 397.5436,30.3586 L484.8846,288.0676 C485.2386,289.1096 484.6746,290.2506 483.6326,290.6036 L113.8526,415.9266 Z" id="Fill-4" fill="#C0CA33"></path>
            <path d="M135.6602,375.2176 C134.6192,375.5716 133.4772,375.0076 133.1242,373.9656 L107.8872,299.4976 C107.5332,298.4556 108.0972,297.3146 109.1392,296.9616 L139.2002,286.7736 C140.2412,286.4196 141.3832,286.9836 141.7362,288.0256 L166.9732,362.4926 C167.3272,363.5346 166.7642,364.6766 165.7222,365.0296 L135.6602,375.2176 Z" id="Fill-6" fill="#F9FBE7"></path>
            <polygon id="Fill-8" fill="#9E9D24" points="460.0547 216.7029 451.1167 190.3339 310.6547 237.9379 343.2647 257.0349 328.9847 292.0229 469.4477 244.4179"></polygon>
        </g>
    </g>
</svg>