<?xml version="1.0" encoding="UTF-8"?>
<svg width="507px" height="490px" viewBox="0 0 507 490" version="1.1" xmlns="http://www.w3.org/2000/svg" xmlns:xlink="http://www.w3.org/1999/xlink">
    <!-- Generator: Sketch 55.1 (78136) - https://sketchapp.com -->
    <title>Artboard Copy 3</title>
    <desc>Created with Sketch.</desc>
    <defs>
        <polygon id="path-1" points="0.5941 0.5854 455.759 0.5854 455.759 287.999811 0.5941 287.999811"></polygon>
        <polygon id="path-3" points="0.000163626497 0.114 489.92369 0.114 489.92369 266.8361 0.000163626497 266.8361"></polygon>
    </defs>
    <g id="Artboard-Copy-3" stroke="none" stroke-width="1" fill="none" fill-rule="evenodd">
        <g id="Group-135">
            <g id="Group-3" transform="translate(51.000000, 201.886000)">
                <mask id="mask-2" fill="white">
                    <use xlink:href="#path-1"></use>
                </mask>
                <g id="Clip-2"></g>
                <path d="M430.3121,231.5104 L65.0351,287.6474 C48.6591,290.1644 33.3431,278.9294 30.8261,262.5524 L0.5941,65.8364 L425.1751,0.5854 L455.4071,197.3014 C457.9241,213.6774 446.6881,228.9934 430.3121,231.5104" id="Fill-1" fill="#CFD8DC" mask="url(#mask-2)"></path>
            </g>
            <g id="Group-6" transform="translate(0.000000, 0.886000)">
                <mask id="mask-4" fill="white">
                    <use xlink:href="#path-3"></use>
                </mask>
                <g id="Clip-5"></g>
                <path d="M476.1749,201.5851 L51.5939,266.8361 L1.1559,99.9391 C-3.3321,85.0881 5.6419,70.8411 21.2969,68.4351 L463.7139,0.4421 C479.3679,-1.9629 491.0519,9.1081 489.8369,24.8361 L476.1749,201.5851 Z" id="Fill-4" fill="#1E272B" mask="url(#mask-4)"></path>
            </g>
            <polygon id="Fill-7" fill="#263238" points="453.2891 184.6034 69.9771 243.5134 28.9091 96.5604 462.0831 29.9874"></polygon>
            <path d="M142.064,135.6796 C143.839,147.2336 131.585,158.7036 114.691,161.3006 C97.798,163.8966 82.664,156.6356 80.889,145.0816 C79.113,133.5286 91.368,122.0576 108.261,119.4616 C125.154,116.8656 140.288,124.1266 142.064,135.6796" id="Fill-9" fill="#C2185B"></path>
            <path d="M225.4869,122.8588 C227.2619,134.4128 215.0079,145.8828 198.1139,148.4798 C181.2209,151.0758 166.0869,143.8138 164.3119,132.2608 C162.5359,120.7078 174.7909,109.2368 191.6839,106.6408 C208.5769,104.0448 223.7109,111.3058 225.4869,122.8588" id="Fill-11" fill="#1976D2"></path>
            <path d="M308.9097,110.038 C310.6847,121.592 298.4297,133.062 281.5367,135.659 C264.6437,138.255 249.5097,130.993 247.7347,119.44 C245.9587,107.887 258.2137,96.416 275.1067,93.82 C291.9997,91.224 307.1337,98.485 308.9097,110.038" id="Fill-13" fill="#C0CA33"></path>
            <path d="M393.2383,76.1854 C391.0203,76.1854 388.7383,76.3564 386.4253,76.7114 C369.5313,79.3084 357.2773,90.7784 359.0523,102.3314 C360.5853,112.3034 372.0663,119.0764 386.0413,119.0764 C388.2593,119.0764 390.5413,118.9064 392.8553,118.5504 C409.7483,115.9544 422.0033,104.4834 420.2273,92.9304 C418.6953,82.9594 407.2143,76.1854 393.2383,76.1854 M393.2393,76.1854 L393.2393,85.1854 C402.5993,85.1854 410.5473,89.1874 411.3323,94.2974 C412.2043,99.9734 403.9033,107.7474 391.4883,109.6544 C389.6663,109.9354 387.8343,110.0764 386.0413,110.0764 C376.6803,110.0764 368.7333,106.0744 367.9473,100.9644 C367.0753,95.2894 375.3773,87.5154 387.7923,85.6074 C389.6133,85.3274 391.4463,85.1854 393.2383,85.1854 L393.2393,76.1854" id="Fill-15" fill="#C2185B"></path>
            <path d="M388.2486,158.0917 C388.8326,161.8977 384.7966,165.6757 379.2316,166.5307 C373.6676,167.3857 368.6826,164.9937 368.0976,161.1887 C367.5126,157.3837 371.5496,153.6047 377.1146,152.7497 C382.6786,151.8947 387.6636,154.2857 388.2486,158.0917" id="Fill-17" fill="#FF5722"></path>
            <path d="M411.7144,154.4852 C412.2994,158.2912 408.2624,162.0692 402.6984,162.9242 C397.1334,163.7792 392.1494,161.3882 391.5644,157.5822 C390.9794,153.7772 395.0154,149.9982 400.5804,149.1432 C406.1444,148.2882 411.1294,150.6792 411.7144,154.4852" id="Fill-19" fill="#1E272B"></path>
            <path d="M156.2759,190.6825 C157.8929,201.2055 145.5099,211.8405 128.6169,214.4365 C111.7239,217.0335 96.7179,210.6065 95.1009,200.0835 C93.4839,189.5605 105.8669,178.9255 122.7599,176.3295 C139.6529,173.7335 154.6589,180.1595 156.2759,190.6825" id="Fill-21" fill="#7CB342"></path>
            <path d="M239.6988,177.8617 C241.3158,188.3847 228.9328,199.0197 212.0398,201.6157 C195.1468,204.2127 180.1408,197.7857 178.5238,187.2627 C176.9068,176.7397 189.2898,166.1047 206.1828,163.5087 C223.0758,160.9127 238.0818,167.3387 239.6988,177.8617" id="Fill-23" fill="#1E272B"></path>
            <polygon id="Fill-25" fill="#90A4AE" points="360.4932 443.7367 234.3842 463.1177 222.7282 387.2787 348.8382 367.8987"></polygon>
            <path d="M136.9722,303.7391 L111.3932,307.6701 C109.6272,307.9421 108.0122,306.9701 107.7862,305.5011 L106.1512,294.8581 C105.9252,293.3881 107.1732,291.9771 108.9392,291.7061 L134.5182,287.7751 C136.2842,287.5031 137.8992,288.4741 138.1242,289.9441 L139.7602,300.5871 C139.9862,302.0561 138.7382,303.4681 136.9722,303.7391" id="Fill-27" fill="#263238"></path>
            <path d="M133.7012,282.4535 L108.1212,286.3845 C106.3552,286.6565 104.7412,285.6845 104.5152,284.2155 L103.6972,278.8935 C103.4722,277.4245 104.7202,276.0135 106.4862,275.7415 L132.0642,271.8105 C133.8302,271.5385 135.4452,272.5105 135.6712,273.9795 L136.4892,279.3015 C136.7152,280.7705 135.4662,282.1825 133.7012,282.4535" id="Fill-29" fill="#263238"></path>
            <path d="M165.6749,277.5399 L146.4899,280.4879 C144.7249,280.7599 143.1099,279.7889 142.8839,278.3189 L142.0669,272.9969 C141.8409,271.5269 143.0889,270.1159 144.8549,269.8449 L164.0389,266.8959 C165.8049,266.6249 167.4199,267.5959 167.6459,269.0659 L168.4639,274.3879 C168.6889,275.8569 167.4409,277.2689 165.6749,277.5399" id="Fill-31" fill="#263238"></path>
            <path d="M197.649,272.6259 L178.464,275.5739 C176.698,275.8459 175.084,274.8749 174.858,273.4049 L174.04,268.0829 C173.814,266.6139 175.063,265.2029 176.829,264.9309 L196.013,261.9819 C197.779,261.7109 199.394,262.6829 199.62,264.1519 L200.438,269.4739 C200.662,270.9429 199.414,272.3549 197.649,272.6259" id="Fill-33" fill="#263238"></path>
            <path d="M229.6216,267.7123 L210.4376,270.6603 C208.6716,270.9323 207.0566,269.9613 206.8306,268.4913 L206.0136,263.1693 C205.7876,261.6993 207.0356,260.2883 208.8016,260.0173 L227.9856,257.0683 C229.7516,256.7973 231.3666,257.7683 231.5926,259.2383 L232.4106,264.5603 C232.6366,266.0283 231.3876,267.4413 229.6216,267.7123" id="Fill-35" fill="#263238"></path>
            <path d="M261.5958,262.7982 L242.4118,265.7462 C240.6458,266.0182 239.0318,265.0472 238.8048,263.5772 L237.9878,258.2552 C237.7618,256.7852 239.0108,255.3742 240.7768,255.1032 L259.9608,252.1542 C261.7268,251.8832 263.3418,252.8542 263.5668,254.3242 L264.3848,259.6462 C264.6098,261.1152 263.3618,262.5272 261.5958,262.7982" id="Fill-37" fill="#263238"></path>
            <path d="M293.5694,257.8842 L274.3844,260.8332 C272.6184,261.1042 271.0044,260.1332 270.7784,258.6632 L269.9604,253.3422 C269.7354,251.8722 270.9834,250.4612 272.7494,250.1892 L291.9334,247.2412 C293.6994,246.9692 295.3144,247.9412 295.5404,249.4102 L296.3584,254.7322 C296.5834,256.2012 295.3354,257.6132 293.5694,257.8842" id="Fill-39" fill="#263238"></path>
            <path d="M325.543,252.9706 L306.359,255.9186 C304.593,256.1906 302.978,255.2196 302.752,253.7496 L301.935,248.4276 C301.709,246.9576 302.957,245.5466 304.723,245.2756 L323.907,242.3266 C325.673,242.0556 327.288,243.0266 327.514,244.4966 L328.332,249.8186 C328.558,251.2876 327.309,252.6996 325.543,252.9706" id="Fill-41" fill="#263238"></path>
            <path d="M357.5172,248.0565 L338.3322,251.0045 C336.5662,251.2765 334.9522,250.3055 334.7262,248.8355 L333.9082,243.5145 C333.6822,242.0445 334.9312,240.6335 336.6972,240.3615 L355.8812,237.4135 C357.6472,237.1415 359.2622,238.1135 359.4882,239.5825 L360.3062,244.9045 C360.5312,246.3735 359.2832,247.7855 357.5172,248.0565" id="Fill-43" fill="#263238"></path>
            <path d="M389.4908,243.1425 L370.3058,246.0915 C368.5398,246.3625 366.9258,245.3915 366.6998,243.9215 L365.8818,238.6005 C365.6568,237.1305 366.9048,235.7195 368.6708,235.4475 L387.8548,232.4995 C389.6208,232.2275 391.2358,233.1995 391.4618,234.6685 L392.2798,239.9905 C392.5058,241.4595 391.2568,242.8715 389.4908,243.1425" id="Fill-45" fill="#263238"></path>
            <path d="M427.8594,237.246 L402.2804,241.177 C400.5144,241.449 398.9004,240.477 398.6744,239.008 L397.8564,233.686 C397.6304,232.216 398.8794,230.805 400.6454,230.534 L426.2244,226.602 C427.9904,226.331 429.6044,227.303 429.8304,228.772 L430.6484,234.094 C430.8734,235.563 429.6254,236.975 427.8594,237.246" id="Fill-47" fill="#263238"></path>
            <path d="M175.4888,341.3964 L117.9358,350.2414 C116.1698,350.5134 114.5548,349.5424 114.3288,348.0724 L112.6938,337.4294 C112.4678,335.9594 113.7158,334.5484 115.4818,334.2774 L173.0348,325.4324 C174.8008,325.1614 176.4148,326.1324 176.6408,327.6024 L178.2768,338.2444 C178.5028,339.7134 177.2538,341.1254 175.4888,341.3964" id="Fill-49" fill="#263238"></path>
            <path d="M159.4273,322.0761 L114.6643,328.9551 C112.8983,329.2271 111.2833,328.2561 111.0573,326.7861 L109.4223,316.1431 C109.1963,314.6741 110.4443,313.2631 112.2103,312.9911 L156.9733,306.1121 C158.7403,305.8401 160.3543,306.8111 160.5803,308.2811 L162.2163,318.9241 C162.4423,320.3931 161.1933,321.8051 159.4273,322.0761" id="Fill-51" fill="#263238"></path>
            <path d="M165.9698,364.6478 L121.2068,371.5268 C119.4408,371.7978 117.8258,370.8268 117.5998,369.3578 L115.9648,358.7148 C115.7388,357.2448 116.9878,355.8338 118.7538,355.5628 L163.5168,348.6838 C165.2828,348.4118 166.8968,349.3828 167.1228,350.8528 L168.7588,361.4958 C168.9848,362.9648 167.7358,364.3768 165.9698,364.6478" id="Fill-53" fill="#263238"></path>
            <path d="M200.92,293.911 L181.735,296.86 C179.969,297.131 178.355,296.16 178.129,294.69 L176.494,284.047 C176.268,282.578 177.516,281.167 179.282,280.895 L198.466,277.947 C200.233,277.676 201.847,278.647 202.073,280.116 L203.709,290.759 C203.934,292.229 202.686,293.64 200.92,293.911" id="Fill-55" fill="#263238"></path>
            <path d="M168.9463,298.8251 L149.7613,301.7731 C147.9953,302.0451 146.3813,301.0741 146.1553,299.6041 L144.5193,288.9611 C144.2943,287.4921 145.5423,286.0801 147.3083,285.8091 L166.4923,282.8611 C168.2593,282.5891 169.8733,283.5601 170.0993,285.0301 L171.7353,295.6731 C171.9603,297.1421 170.7113,298.5541 168.9463,298.8251" id="Fill-57" fill="#263238"></path>
            <path d="M232.8931,288.9975 L213.7081,291.9455 C211.9421,292.2175 210.3281,291.2465 210.1021,289.7765 L208.4661,279.1335 C208.2411,277.6645 209.4891,276.2525 211.2551,275.9815 L230.4391,273.0335 C232.2061,272.7615 233.8201,273.7325 234.0461,275.2025 L235.6821,285.8455 C235.9071,287.3145 234.6591,288.7265 232.8931,288.9975" id="Fill-59" fill="#263238"></path>
            <path d="M264.8668,284.0834 L245.6828,287.0314 C243.9168,287.3034 242.3028,286.3324 242.0768,284.8624 L240.4408,274.2194 C240.2158,272.7504 241.4638,271.3384 243.2298,271.0674 L262.4138,268.1194 C264.1798,267.8474 265.7948,268.8184 266.0208,270.2884 L267.6568,280.9314 C267.8818,282.4014 266.6328,283.8124 264.8668,284.0834" id="Fill-61" fill="#263238"></path>
            <path d="M296.8409,279.1698 L277.6559,282.1178 C275.8899,282.3898 274.2759,281.4188 274.0499,279.9488 L272.4139,269.3058 C272.1889,267.8368 273.4369,266.4248 275.2029,266.1538 L294.3869,263.2058 C296.1539,262.9338 297.7679,263.9048 297.9939,265.3748 L299.6299,276.0178 C299.8549,277.4868 298.6069,278.8988 296.8409,279.1698" id="Fill-63" fill="#263238"></path>
            <path d="M328.8145,274.2558 L309.6295,277.2038 C307.8635,277.4758 306.2495,276.5048 306.0235,275.0348 L304.3875,264.3918 C304.1625,262.9228 305.4105,261.5108 307.1765,261.2398 L326.3605,258.2918 C328.1275,258.0198 329.7415,258.9908 329.9675,260.4608 L331.6035,271.1038 C331.8295,272.5728 330.5805,273.9848 328.8145,274.2558" id="Fill-65" fill="#263238"></path>
            <path d="M360.7881,269.3422 L341.6041,272.2902 C339.8381,272.5622 338.2231,271.5912 337.9971,270.1212 L336.3621,259.4782 C336.1361,258.0092 337.3841,256.5972 339.1501,256.3262 L358.3351,253.3782 C360.1011,253.1062 361.7151,254.0772 361.9411,255.5472 L363.5771,266.1902 C363.8031,267.6592 362.5541,269.0712 360.7881,269.3422" id="Fill-67" fill="#263238"></path>
            <path d="M392.7623,264.4281 L373.5773,267.3761 C371.8113,267.6481 370.1973,266.6771 369.9713,265.2071 L368.3353,254.5641 C368.1103,253.0951 369.3583,251.6831 371.1243,251.4121 L390.3083,248.4641 C392.0753,248.1921 393.6893,249.1631 393.9153,250.6331 L395.5513,261.2761 C395.7763,262.7451 394.5283,264.1571 392.7623,264.4281" id="Fill-69" fill="#263238"></path>
            <path d="M431.1309,258.5311 L405.5519,262.4621 C403.7859,262.7341 402.1719,261.7621 401.9459,260.2931 L400.3099,249.6501 C400.0839,248.1801 401.3329,246.7691 403.0989,246.4981 L428.6769,242.5671 C430.4439,242.2961 432.0579,243.2671 432.2839,244.7361 L433.9199,255.3791 C434.1449,256.8491 432.8959,258.2601 431.1309,258.5311" id="Fill-71" fill="#263238"></path>
            <path d="M191.4009,317.1625 L172.2169,320.1105 C170.4509,320.3825 168.8359,319.4115 168.6099,317.9415 L166.9749,307.2985 C166.7489,305.8295 167.9969,304.4175 169.7629,304.1465 L188.9479,301.1985 C190.7139,300.9265 192.3279,301.8975 192.5539,303.3675 L194.1899,314.0105 C194.4159,315.4795 193.1669,316.8915 191.4009,317.1625" id="Fill-73" fill="#263238"></path>
            <path d="M223.375,312.2484 L204.19,315.1964 C202.424,315.4684 200.81,314.4974 200.584,313.0274 L198.948,302.3844 C198.723,300.9154 199.971,299.5034 201.737,299.2324 L220.921,296.2844 C222.688,296.0124 224.302,296.9834 224.528,298.4534 L226.164,309.0964 C226.389,310.5654 225.141,311.9774 223.375,312.2484" id="Fill-75" fill="#263238"></path>
            <path d="M255.3487,307.3344 L236.1637,310.2834 C234.3977,310.5544 232.7837,309.5834 232.5577,308.1134 L230.9227,297.4704 C230.6967,296.0014 231.9447,294.5894 233.7107,294.3184 L252.8947,291.3704 C254.6617,291.0984 256.2757,292.0694 256.5017,293.5394 L258.1377,304.1824 C258.3637,305.6514 257.1147,307.0634 255.3487,307.3344" id="Fill-77" fill="#263238"></path>
            <path d="M287.3223,302.4208 L268.1383,305.3688 C266.3723,305.6408 264.7573,304.6698 264.5313,303.1998 L262.8963,292.5568 C262.6703,291.0878 263.9183,289.6758 265.6843,289.4048 L284.8693,286.4568 C286.6353,286.1848 288.2493,287.1558 288.4753,288.6258 L290.1113,299.2688 C290.3373,300.7378 289.0883,302.1498 287.3223,302.4208" id="Fill-79" fill="#263238"></path>
            <path d="M319.2964,297.5067 L300.1114,300.4547 C298.3454,300.7267 296.7314,299.7557 296.5054,298.2857 L294.8694,287.6427 C294.6444,286.1737 295.8924,284.7617 297.6584,284.4907 L316.8424,281.5427 C318.6094,281.2707 320.2234,282.2417 320.4494,283.7117 L322.0854,294.3547 C322.3104,295.8237 321.0624,297.2357 319.2964,297.5067" id="Fill-81" fill="#263238"></path>
            <path d="M351.2701,292.5927 L332.0851,295.5417 C330.3191,295.8127 328.7051,294.8417 328.4791,293.3717 L326.8441,282.7287 C326.6181,281.2597 327.8661,279.8487 329.6321,279.5767 L348.8161,276.6287 C350.5831,276.3577 352.1971,277.3287 352.4231,278.7977 L354.0591,289.4407 C354.2851,290.9107 353.0361,292.3217 351.2701,292.5927" id="Fill-83" fill="#263238"></path>
            <path d="M383.2437,287.6791 L364.0597,290.6271 C362.2937,290.8991 360.6787,289.9281 360.4527,288.4581 L358.8177,277.8151 C358.5917,276.3461 359.8397,274.9341 361.6057,274.6631 L380.7907,271.7151 C382.5567,271.4431 384.1707,272.4141 384.3967,273.8841 L386.0327,284.5271 C386.2587,285.9961 385.0097,287.4081 383.2437,287.6791" id="Fill-85" fill="#263238"></path>
            <path d="M434.4019,279.8168 L396.0329,285.7128 C394.2669,285.9848 392.6529,285.0138 392.4269,283.5438 L390.7909,272.9008 C390.5659,271.4318 391.8139,270.0208 393.5799,269.7488 L431.9489,263.8528 C433.7149,263.5808 435.3289,264.5518 435.5549,266.0218 L437.1909,276.6648 C437.4159,278.1338 436.1679,279.5458 434.4019,279.8168" id="Fill-87" fill="#263238"></path>
            <path d="M207.4624,336.4828 L188.2784,339.4308 C186.5124,339.7028 184.8974,338.7318 184.6714,337.2618 L183.0364,326.6188 C182.8104,325.1498 184.0584,323.7378 185.8244,323.4668 L205.0094,320.5188 C206.7754,320.2468 208.3894,321.2178 208.6154,322.6878 L210.2514,333.3308 C210.4764,334.7998 209.2284,336.2118 207.4624,336.4828" id="Fill-89" fill="#263238"></path>
            <path d="M214.0049,379.0536 L194.8209,382.0016 C193.0549,382.2736 191.4399,381.3026 191.2139,379.8326 L189.5789,369.1896 C189.3529,367.7206 190.6009,366.3086 192.3669,366.0376 L211.5519,363.0896 C213.3179,362.8176 214.9319,363.7886 215.1579,365.2586 L216.7939,375.9016 C217.0189,377.3706 215.7709,378.7826 214.0049,379.0536" id="Fill-91" fill="#263238"></path>
            <path d="M373.8731,354.4843 L354.6891,357.4323 C352.9231,357.7043 351.3081,356.7333 351.0821,355.2633 L349.4471,344.6203 C349.2211,343.1513 350.4691,341.7393 352.2351,341.4683 L371.4201,338.5203 C373.1861,338.2483 374.8001,339.2193 375.0261,340.6893 L376.6621,351.3323 C376.8881,352.8013 375.6391,354.2133 373.8731,354.4843" id="Fill-93" fill="#263238"></path>
            <path d="M239.4356,331.5687 L220.2506,334.5177 C218.4846,334.7887 216.8706,333.8177 216.6446,332.3477 L215.0096,321.7047 C214.7836,320.2357 216.0316,318.8237 217.7976,318.5527 L236.9816,315.6047 C238.7486,315.3327 240.3626,316.3037 240.5886,317.7737 L242.2246,328.4167 C242.4506,329.8857 241.2016,331.2977 239.4356,331.5687" id="Fill-95" fill="#263238"></path>
            <path d="M271.4092,326.6552 L252.2252,329.6032 C250.4592,329.8752 248.8452,328.9042 248.6192,327.4342 L246.9832,316.7912 C246.7582,315.3222 248.0062,313.9102 249.7722,313.6392 L268.9562,310.6902 C270.7222,310.4192 272.3372,311.3902 272.5632,312.8602 L274.1992,323.5032 C274.4242,324.9722 273.1752,326.3842 271.4092,326.6552" id="Fill-97" fill="#263238"></path>
            <path d="M303.3834,321.7411 L284.1984,324.6891 C282.4324,324.9611 280.8184,323.9901 280.5924,322.5201 L278.9564,311.8771 C278.7314,310.4081 279.9794,308.9961 281.7454,308.7251 L300.9294,305.7771 C302.6964,305.5051 304.3104,306.4761 304.5364,307.9461 L306.1724,318.5891 C306.3974,320.0581 305.1494,321.4701 303.3834,321.7411" id="Fill-99" fill="#263238"></path>
            <path d="M335.357,316.827 L316.172,319.776 C314.406,320.047 312.792,319.076 312.566,317.606 L310.931,306.963 C310.705,305.494 311.953,304.083 313.719,303.811 L332.903,300.863 C334.67,300.592 336.284,301.563 336.51,303.032 L338.146,313.675 C338.372,315.144 337.123,316.556 335.357,316.827" id="Fill-101" fill="#263238"></path>
            <path d="M367.3306,311.9135 L348.1466,314.8615 C346.3806,315.1335 344.7656,314.1625 344.5396,312.6925 L342.9046,302.0495 C342.6786,300.5805 343.9266,299.1685 345.6926,298.8975 L364.8776,295.9495 C366.6436,295.6775 368.2576,296.6485 368.4836,298.1185 L370.1196,308.7615 C370.3456,310.2305 369.0966,311.6425 367.3306,311.9135" id="Fill-103" fill="#263238"></path>
            <path d="M399.3047,306.9994 L380.1197,309.9474 C378.3537,310.2194 376.7397,309.2484 376.5137,307.7784 L374.8777,297.1354 C374.6527,295.6664 375.9007,294.2544 377.6667,293.9834 L396.8507,291.0354 C398.6177,290.7634 400.2317,291.7344 400.4577,293.2044 L402.0937,303.8474 C402.3187,305.3164 401.0707,306.7284 399.3047,306.9994" id="Fill-105" fill="#263238"></path>
            <path d="M437.6734,301.1029 L412.0944,305.0339 C410.3284,305.3049 408.7144,304.3339 408.4884,302.8649 L406.8524,292.2219 C406.6274,290.7519 407.8754,289.3409 409.6414,289.0699 L435.2194,285.1389 C436.9864,284.8669 438.6004,285.8379 438.8264,287.3079 L440.4624,297.9509 C440.6874,299.4199 439.4394,300.8319 437.6734,301.1029" id="Fill-107" fill="#263238"></path>
            <path d="M197.9439,359.7338 L178.7589,362.6818 C176.9929,362.9538 175.3789,361.9828 175.1529,360.5128 L173.5169,349.8698 C173.2919,348.4008 174.5399,346.9888 176.3059,346.7178 L195.4899,343.7698 C197.2569,343.4978 198.8709,344.4688 199.0969,345.9388 L200.7329,356.5818 C200.9579,358.0508 199.7099,359.4628 197.9439,359.7338" id="Fill-109" fill="#263238"></path>
            <path d="M150.0577,388.8812 L124.4777,392.8122 C122.7117,393.0842 121.0977,392.1122 120.8717,390.6432 L119.2357,380.0002 C119.0097,378.5302 120.2587,377.1192 122.0247,376.8482 L147.6027,372.9172 C149.3697,372.6452 150.9837,373.6162 151.2097,375.0862 L152.8457,385.7292 C153.0717,387.1982 151.8227,388.6102 150.0577,388.8812" id="Fill-111" fill="#263238"></path>
            <path d="M405.8472,349.5702 L386.6622,352.5182 C384.8962,352.7902 383.2822,351.8192 383.0562,350.3492 L381.4202,339.7062 C381.1952,338.2372 382.4432,336.8252 384.2092,336.5542 L403.3932,333.6062 C405.1602,333.3342 406.7742,334.3052 407.0002,335.7752 L408.6362,346.4182 C408.8612,347.8872 407.6132,349.2992 405.8472,349.5702" id="Fill-113" fill="#263238"></path>
            <path d="M444.2159,343.6737 L418.6369,347.6047 C416.8709,347.8757 415.2569,346.9047 415.0309,345.4357 L413.3949,334.7927 C413.1699,333.3227 414.4179,331.9117 416.1839,331.6407 L441.7619,327.7097 C443.5289,327.4377 445.1429,328.4087 445.3689,329.8787 L447.0049,340.5217 C447.2299,341.9907 445.9819,343.4027 444.2159,343.6737" id="Fill-115" fill="#263238"></path>
            <path d="M182.0313,383.9672 L162.8463,386.9162 C161.0803,387.1872 159.4663,386.2162 159.2403,384.7462 L157.6043,374.1032 C157.3793,372.6342 158.6273,371.2222 160.3933,370.9512 L179.5773,368.0032 C181.3443,367.7322 182.9583,368.7022 183.1843,370.1722 L184.8203,380.8152 C185.0453,382.2852 183.7963,383.6962 182.0313,383.9672" id="Fill-117" fill="#263238"></path>
            <path d="M229.9175,354.8197 L210.7325,357.7677 C208.9665,358.0397 207.3525,357.0687 207.1265,355.5987 L205.4905,344.9557 C205.2655,343.4867 206.5135,342.0747 208.2795,341.8037 L227.4635,338.8557 C229.2305,338.5837 230.8445,339.5547 231.0705,341.0247 L232.7065,351.6677 C232.9325,353.1367 231.6835,354.5487 229.9175,354.8197" id="Fill-119" fill="#263238"></path>
            <path d="M261.8912,349.9061 L242.7072,352.8541 C240.9412,353.1261 239.3262,352.1551 239.1002,350.6851 L237.4652,340.0421 C237.2392,338.5731 238.4872,337.1611 240.2532,336.8901 L259.4382,333.9421 C261.2042,333.6701 262.8182,334.6411 263.0442,336.1111 L264.6802,346.7541 C264.9062,348.2231 263.6572,349.6351 261.8912,349.9061" id="Fill-121" fill="#263238"></path>
            <path d="M341.8995,359.3978 L226.7945,377.0878 C225.0285,377.3588 223.4135,376.3878 223.1885,374.9178 L221.5525,364.2758 C221.3265,362.8058 222.5745,361.3948 224.3405,361.1238 L339.4465,343.4338 C341.2125,343.1618 342.8275,344.1328 343.0535,345.6028 L344.6895,356.2458 C344.9145,357.7158 343.6655,359.1268 341.8995,359.3978" id="Fill-123" fill="#263238"></path>
            <path d="M293.8653,344.9921 L274.6803,347.9401 C272.9143,348.2121 271.3003,347.2411 271.0743,345.7711 L269.4383,335.1281 C269.2133,333.6591 270.4613,332.2471 272.2273,331.9761 L291.4113,329.0281 C293.1783,328.7561 294.7923,329.7271 295.0183,331.1971 L296.6543,341.8401 C296.8793,343.3091 295.6313,344.7211 293.8653,344.9921" id="Fill-125" fill="#263238"></path>
            <path d="M325.8389,340.078 L306.6539,343.027 C304.8879,343.298 303.2739,342.327 303.0479,340.857 L301.4119,330.214 C301.1869,328.745 302.4349,327.333 304.2009,327.062 L323.3849,324.114 C325.1519,323.842 326.7659,324.813 326.9919,326.283 L328.6279,336.926 C328.8539,338.395 327.6049,339.807 325.8389,340.078" id="Fill-127" fill="#263238"></path>
            <path d="M357.8126,335.1644 L338.6286,338.1124 C336.8626,338.3844 335.2476,337.4134 335.0216,335.9434 L333.3866,325.3004 C333.1606,323.8314 334.4086,322.4194 336.1746,322.1484 L355.3596,319.2004 C357.1256,318.9284 358.7396,319.8994 358.9656,321.3694 L360.6016,332.0124 C360.8276,333.4814 359.5786,334.8934 357.8126,335.1644" id="Fill-129" fill="#263238"></path>
            <path d="M389.7867,330.2504 L370.6017,333.1984 C368.8357,333.4704 367.2217,332.4994 366.9957,331.0294 L365.3597,320.3864 C365.1347,318.9174 366.3827,317.5054 368.1487,317.2344 L387.3327,314.2864 C389.0997,314.0144 390.7137,314.9854 390.9397,316.4554 L392.5757,327.0984 C392.8007,328.5674 391.5527,329.9794 389.7867,330.2504" id="Fill-131" fill="#263238"></path>
            <path d="M440.9449,322.3881 L402.5759,328.2851 C400.8099,328.5561 399.1949,327.5851 398.9689,326.1161 L397.3339,315.4721 C397.1079,314.0031 398.3569,312.5921 400.1229,312.3211 L438.4909,306.4241 C440.2579,306.1521 441.8719,307.1231 442.0979,308.5931 L443.7339,319.2361 C443.9589,320.7061 442.7099,322.1171 440.9449,322.3881" id="Fill-133" fill="#263238"></path>
        </g>
    </g>
</svg>