<svg height="436" viewBox="0 0 361 436" width="361" xmlns="http://www.w3.org/2000/svg" xmlns:xlink="http://www.w3.org/1999/xlink"><mask id="a" fill="#fff"><path d="m.97268704.031h354.23283096v434.968778h-354.23283096z" fill="#fff" fill-rule="evenodd"/></mask><mask id="b" fill="#fff"><path d="m0 .0257h28.5979v16.956h-28.5979z" fill="#fff" fill-rule="evenodd"/></mask><g fill="none" fill-rule="evenodd" transform="matrix(.8660254 .5 -.5 .8660254 134.182415 -63.043538)"><path d="m355.1379 364.8565c.284 1.062-.353 2.164-1.416 2.448l-253.179 67.628c-1.063.283-2.165-.353-2.449-1.416l-97.054-363.342c-.283-1.062.354-2.164 1.416-2.448l253.18-67.628c1.063-.284 2.165.354 2.448 1.416z" fill="#7cb342" mask="url(#a)" transform="translate(5 .969)"/><g fill="#f1f8e9"><path d="m28.5979 10.0587-25.918 6.923-2.68-10.033 25.918-6.923z" mask="url(#b)" transform="translate(0 81.969)"/><path d="m36.445 121.4036-25.918 6.923-2.68-10.032 25.918-6.924z"/><path d="m44.2917 150.7806-25.918 6.923-2.68-10.033 25.918-6.923z"/><path d="m52.1384 180.1566-25.918 6.923-2.68-10.032 25.918-6.924z"/><path d="m59.9855 209.5335-25.918 6.923-2.68-10.033 25.918-6.923z"/><path d="m67.8322 238.9095-25.918 6.923-2.68-10.032 25.918-6.924z"/><path d="m75.6794 268.2855-25.918 6.924-2.68-10.033 25.918-6.923z"/><path d="m83.5261 297.6624-25.918 6.923-2.68-10.032 25.918-6.924z"/><path d="m91.3732 327.0384-25.918 6.924-2.68-10.033 25.918-6.923z"/><path d="m99.2199 356.4154-25.918 6.923-2.68-10.032 25.918-6.924z"/><path d="m107.0666 385.7913-25.918 6.924-2.68-10.033 25.918-6.923z"/><path d="m114.9138 415.1683-25.918 6.923-2.68-10.032 25.918-6.924z"/></g><path d="m244.7688 119.387c7.17 26.842-8.777 54.414-35.62 61.584-26.842 7.17-54.414-8.777-61.584-35.619s8.778-54.414 35.62-61.584 54.414 8.777 61.584 35.619" fill="#689f38"/><path d="m96.7399 111.0404 28.112 105.242 105.242-28.111-.143-.533-134.017-76.382z" fill="#558b2f"/></g></svg>