<svg width="784" height="224" xmlns="http://www.w3.org/2000/svg"><g fill="none" fill-rule="evenodd"><path fill="#FEFEFE" d="M0 0h784v224H0z"/><rect width="50" height="50" rx="12" opacity=".208" transform="translate(342 118)" fill="#CAEAF8" fill-rule="nonzero"/><rect width="50" height="50" rx="12" opacity=".208" transform="translate(286 118)" fill="#F8EDCA" fill-rule="nonzero"/><rect width="50" height="50" rx="12" opacity=".208" transform="translate(174 174)" fill="#F8EDCA" fill-rule="nonzero"/><rect width="50" height="50" rx="12" opacity=".208" transform="translate(6 174)" fill="#F8EDCA" fill-rule="nonzero"/><rect width="50" height="50" rx="12" opacity=".208" transform="translate(342 174)" fill="#F8EDCA" fill-rule="nonzero"/><rect width="50" height="50" rx="12" opacity=".208" transform="translate(566 174)" fill="#F8EDCA" fill-rule="nonzero"/><rect width="50" height="50" rx="12" opacity=".208" transform="translate(230 118)" fill="#CAEAF8" fill-rule="nonzero"/><rect width="50" height="50" rx="12" opacity=".208" transform="translate(118 118)" fill="#CEF8CA" fill-rule="nonzero"/><rect width="50" height="50" rx="12" opacity=".208" transform="translate(230 174)" fill="#CEF8CA" fill-rule="nonzero"/><rect width="50" height="50" rx="12" opacity=".208" transform="translate(62 118)" fill="#E4D0F2" fill-rule="nonzero"/><rect width="50" height="50" rx="12" opacity=".208" transform="translate(6 118)" fill="#CAEAF8" fill-rule="nonzero"/><rect width="50" height="50" rx="12" opacity=".208" transform="translate(6 118)" fill="#CAEAF8" fill-rule="nonzero"/><rect width="50" height="50" rx="12" opacity=".208" transform="translate(622 174)" fill="#CAEAF8" fill-rule="nonzero"/><rect width="50" height="50" rx="12" opacity=".208" transform="translate(62 174)" fill="#CAEAF8" fill-rule="nonzero"/><rect width="50" height="50" rx="12" opacity=".208" transform="translate(118 174)" fill="#CAEAF8" fill-rule="nonzero"/><rect width="50" height="50" rx="12" opacity=".208" transform="translate(342 62)" fill="#E4D0F2" fill-rule="nonzero"/><rect width="50" height="50" rx="12" opacity=".208" transform="translate(230 62)" fill="#CAEAF8" fill-rule="nonzero"/><rect width="50" height="50" rx="12" opacity=".208" transform="translate(174 62)" fill="#F8EDCA" fill-rule="nonzero"/><rect width="50" height="50" rx="12" opacity=".208" transform="translate(118 62)" fill="#E4D0F2" fill-rule="nonzero"/><rect width="50" height="50" rx="12" opacity=".208" transform="translate(62 62)" fill="#F8EDCA" fill-rule="nonzero"/><rect width="50" height="50" rx="12" opacity=".208" transform="translate(6 62)" fill="#F8CACA" fill-rule="nonzero"/><rect width="50" height="50" rx="12" opacity=".208" transform="translate(342 6)" fill="#F8CACA" fill-rule="nonzero"/><rect width="50" height="50" rx="12" opacity=".208" transform="translate(286 6)" fill="#CEF8CA" fill-rule="nonzero"/><rect width="50" height="50" rx="12" opacity=".208" transform="translate(230 6)" fill="#CAEAF8" fill-rule="nonzero"/><rect width="50" height="50" rx="12" opacity=".208" transform="translate(174 6)" fill="#F8EDCA" fill-rule="nonzero"/><rect width="50" height="50" rx="12" opacity=".208" transform="translate(118 6)" fill="#F8CACA" fill-rule="nonzero"/><rect width="50" height="50" rx="12" opacity=".208" transform="translate(62 6)" fill="#CAEAF8" fill-rule="nonzero"/><rect width="50" height="50" rx="12" opacity=".208" transform="translate(6 6)" fill="#CAEAF8" fill-rule="nonzero"/><rect width="50" height="50" rx="12" opacity=".208" transform="translate(398 174)" fill="#CAEAF8" fill-rule="nonzero"/><rect width="50" height="50" rx="12" opacity=".208" transform="translate(734 118)" fill="#CAEAF8" fill-rule="nonzero"/><rect width="50" height="50" rx="12" opacity=".208" transform="translate(678 118)" fill="#F8EDCA" fill-rule="nonzero"/><rect width="50" height="50" rx="12" opacity=".208" transform="translate(622 118)" fill="#F8CACA" fill-rule="nonzero"/><rect width="50" height="50" rx="12" opacity=".208" transform="translate(510 118)" fill="#F8EDCA" fill-rule="nonzero"/><rect width="50" height="50" rx="12" opacity=".208" transform="translate(454 118)" fill="#E4D0F2" fill-rule="nonzero"/><rect width="50" height="50" rx="12" opacity=".208" transform="translate(398 118)" fill="#CAEAF8" fill-rule="nonzero"/><rect width="50" height="50" rx="12" opacity=".208" transform="translate(398 118)" fill="#F8EDCA" fill-rule="nonzero"/><rect width="50" height="50" rx="12" opacity=".208" transform="translate(510 174)" fill="#F8CACA" fill-rule="nonzero"/><rect width="50" height="50" rx="12" opacity=".208" transform="translate(734 62)" fill="#EAEAEA" fill-rule="nonzero"/><rect width="50" height="50" rx="12" opacity=".208" transform="translate(622 62)" fill="#F8CACA" fill-rule="nonzero"/><rect width="50" height="50" rx="12" opacity=".208" transform="translate(566 62)" fill="#EAEAEA" fill-rule="nonzero"/><rect width="50" height="50" rx="12" opacity=".208" transform="translate(510 62)" fill="#CAEAF8" fill-rule="nonzero"/><rect width="50" height="50" rx="12" opacity=".208" transform="translate(454 62)" fill="#F8EDCA" fill-rule="nonzero"/><rect width="50" height="50" rx="12" opacity=".208" transform="translate(398 62)" fill="#F8CACA" fill-rule="nonzero"/><rect width="50" height="50" rx="12" opacity=".208" transform="translate(454 174)" fill="#EAEAEA" fill-rule="nonzero"/><rect width="50" height="50" rx="12" opacity=".208" transform="translate(678 62)" fill="#CEF8CA" fill-rule="nonzero"/><rect width="50" height="50" rx="12" opacity=".208" transform="translate(566 118)" fill="#CEF8CA" fill-rule="nonzero"/><rect width="50" height="50" rx="12" opacity=".208" transform="translate(678 174)" fill="#CEF8CA" fill-rule="nonzero"/><rect width="50" height="50" rx="12" opacity=".208" transform="translate(734 6)" fill="#F8CACA" fill-rule="nonzero"/><rect width="50" height="50" rx="12" opacity=".208" transform="translate(678 6)" fill="#E4D0F2" fill-rule="nonzero"/><rect width="50" height="50" rx="12" opacity=".208" transform="translate(734 174)" fill="#E4D0F2" fill-rule="nonzero"/><rect width="50" height="50" rx="12" opacity=".208" transform="translate(622 6)" fill="#CAEAF8" fill-rule="nonzero"/><rect width="50" height="50" rx="12" opacity=".208" transform="translate(566 6)" fill="#F8CACA" fill-rule="nonzero"/><rect width="50" height="50" rx="12" opacity=".208" transform="translate(286 62)" fill="#F8CACA" fill-rule="nonzero"/><rect width="50" height="50" rx="12" opacity=".208" transform="translate(174 118)" fill="#F8CACA" fill-rule="nonzero"/><rect width="50" height="50" rx="12" opacity=".208" transform="translate(510 6)" fill="#F8CACA" fill-rule="nonzero"/><rect width="50" height="50" rx="12" opacity=".208" transform="translate(454 6)" fill="#EAEAEA" fill-rule="nonzero"/><rect width="50" height="50" rx="12" opacity=".208" transform="translate(398 6)" fill="#CEF8CA" fill-rule="nonzero"/><rect width="50" height="50" rx="12" opacity=".208" transform="translate(286 174)" fill="#E4D0F2" fill-rule="nonzero"/></g></svg>