<?xml version="1.0" encoding="UTF-8"?>
<svg width="500px" height="500px" viewBox="0 0 500 500" version="1.1" xmlns="http://www.w3.org/2000/svg" xmlns:xlink="http://www.w3.org/1999/xlink">
    <!-- Generator: Sketch 55.1 (78136) - https://sketchapp.com -->
    <title>Artboard Copy 5</title>
    <desc>Created with Sketch.</desc>
    <g id="Artboard-Copy-5" stroke="none" stroke-width="1" fill="none" fill-rule="evenodd">
        <circle id="Oval" fill="#ECF3FF" cx="250" cy="250" r="250"></circle>
        <g id="Group" transform="translate(281.000000, 96.000000)">
            <circle id="Oval" fill="#B6D6EC" cx="45" cy="45" r="45"></circle>
            <path d="M40.6576001,89.7931801 C17.8421589,87.6086308 4.47641924e-13,68.3879451 4.47641924e-13,45 C4.47641924e-13,21.6120549 17.8421589,2.39136925 40.6576001,0.206819916 C25.8374301,9.60377276 16,26.1530589 16,45 C16,63.8469411 25.8374301,80.3962272 40.6576133,89.7931814 Z" id="Combined-Shape" fill="#A4CBE6"></path>
        </g>
        <circle id="Oval-Copy" fill="#B6D6EC" cx="250" cy="96" r="20"></circle>
        <circle id="Oval-Copy-3" fill="#B6D6EC" cx="88" cy="225" r="25"></circle>
        <path d="M85.5956565,249.885874 C72.9165342,248.676011 63,237.996071 63,225 C63,212.003929 72.9165342,201.323989 85.5956565,200.114126 C78.5057947,206.075881 74,215.011748 74,225 C74,234.988252 78.5057947,243.924119 85.5956592,249.885877 Z" id="Combined-Shape" fill="#A4CBE6"></path>
        <path d="M330.862331,13.3667305 C429.250288,46.9790281 500,140.227274 500,250 C500,358.722082 430.59811,451.234484 333.679737,485.651799 C407.110051,433.352886 455,347.519091 455,250.5 C455,152.245517 405.882673,65.4629997 330.862287,13.3667154 Z" id="Combined-Shape" fill="#D6E1F4"></path>
        <path d="M327.256474,487.834369 C312.451746,492.640081 297.04135,496.101897 281.169221,498.07588 C282.617189,485.646559 293.182057,476 306,476 C314.976018,476 322.847178,480.730458 327.256475,487.834369 Z" id="Combined-Shape" fill="#B6D6EC"></path>
        <path d="M69.9705864,423.463381 C51.2064295,403.993461 35.5711408,381.487332 23.8741361,356.754411 C31.6179909,343.163705 46.2388465,334 63,334 C87.8528137,334 108,354.147186 108,379 C108,401.481995 91.5133292,420.113322 69.9705864,423.463381 Z" id="Combined-Shape" fill="#B6D6EC"></path>
        <path d="M58.6576001,334.20682 C44.6057183,343.116628 35.0333497,358.456427 34.0786367,376.088084 C30.4062491,369.812807 26.9996017,363.363102 23.8741361,356.754411 C30.9412039,344.351487 43.7357467,335.635568 58.6576001,334.20682 Z" id="Combined-Shape" fill="#A4CBE6"></path>
        <path d="M247.846201,115.885381 C237.81339,114.811148 230,106.318032 230,96 C230,85.6819682 237.81339,77.1888515 247.846201,76.1146189 C241.861527,80.6822524 238,87.8901723 238,96 C238,104.109828 241.861527,111.317748 247.846201,115.885381 Z" id="Combined-Shape" fill="#A4CBE6"></path>
        <circle id="Oval-Copy" fill="#B6D6EC" cx="290" cy="300" r="20"></circle>
        <path d="M287.846201,319.885381 C277.81339,318.811148 270,310.318032 270,300 C270,289.681968 277.81339,281.188852 287.846201,280.114619 C281.861527,284.682252 278,291.890172 278,300 C278,308.109828 281.861527,315.317748 287.846201,319.885381 Z" id="Combined-Shape" fill="#A4CBE6"></path>
        <circle id="Oval-Copy" fill="#B6D6EC" cx="139" cy="388" r="20"></circle>
        <path d="M136.846201,407.885381 C126.81339,406.811148 119,398.318032 119,388 C119,377.681968 126.81339,369.188852 136.846201,368.114619 C130.861527,372.682252 127,379.890172 127,388 C127,396.109828 130.861527,403.317748 136.846201,407.885381 Z" id="Combined-Shape" fill="#A4CBE6"></path>
        <path d="M292.318342,496.433179 C288.6289,497.062215 284.911898,497.610411 281.169221,498.07588 C282.52557,486.433015 291.881587,477.231902 303.595656,476.114126 C297.606024,481.150715 293.460678,488.309974 292.318342,496.433179 Z" id="Combined-Shape" fill="#A4CBE6"></path>
        <circle id="Oval" fill="#A4CBE6" cx="210" cy="236" r="5"></circle>
        <circle id="Oval-Copy-6" fill="#A4CBE6" cx="190" cy="465" r="5"></circle>
        <circle id="Oval-Copy-7" fill="#A4CBE6" cx="64" cy="131" r="5"></circle>
        <circle id="Oval-Copy-8" fill="#A4CBE6" cx="415" cy="195" r="5"></circle>
        <circle id="Oval-Copy-2" fill="#A4CBE6" cx="387" cy="374" r="5"></circle>
    </g>
</svg>