<svg height="500" viewBox="0 0 500 500" width="500" xmlns="http://www.w3.org/2000/svg"><g fill="none" fill-rule="evenodd"><circle cx="250" cy="250" fill="#ecf3ff" r="250"/><g transform="translate(281 96)"><circle cx="45" cy="45" fill="#b6d6ec" r="45"/><path d="m40.6576001 89.7931801c-22.8154412-2.1845493-40.6576001-21.405235-40.6576001-44.7931801s17.8421589-42.60863075 40.6576001-44.79318008c-14.82017 9.39695284-24.6576001 25.94623898-24.6576001 44.79318008s9.8374301 35.3962272 24.6576133 44.7931814z" fill="#a4cbe6"/></g><circle cx="250" cy="96" fill="#b6d6ec" r="20"/><circle cx="88" cy="225" fill="#b6d6ec" r="25"/><path d="m85.5956565 249.885874c-12.6791223-1.209863-22.5956565-11.889803-22.5956565-24.885874s9.9165342-23.676011 22.5956565-24.885874c-7.0898618 5.961755-11.5956565 14.897622-11.5956565 24.885874s4.5057947 18.924119 11.5956592 24.885877z" fill="#a4cbe6"/><path d="m330.862331 13.3667305c98.387957 33.6122976 169.137669 126.8605435 169.137669 236.6332695 0 108.722082-69.40189 201.234484-166.320263 235.651799 73.430314-52.298913 121.320263-138.132708 121.320263-235.151799 0-98.254483-49.117327-185.0370003-124.137713-237.1332846z" fill="#d6e1f4"/><path d="m327.256474 487.834369c-14.804728 4.805712-30.215124 8.267528-46.087253 10.241511 1.447968-12.429321 12.012836-22.07588 24.830779-22.07588 8.976018 0 16.847178 4.730458 21.256475 11.834369z" fill="#b6d6ec"/><path d="m69.9705864 423.463381c-18.7641569-19.46992-34.3994456-41.976049-46.0964503-66.70897 7.7438548-13.590706 22.3647104-22.754411 39.1258639-22.754411 24.8528137 0 45 20.147186 45 45 0 22.481995-16.4866708 41.113322-38.0294136 44.463381z" fill="#b6d6ec"/><path d="m58.6576001 334.20682c-14.0518818 8.909808-23.6242504 24.249607-24.5789634 41.881264-3.6723876-6.275277-7.079035-12.724982-10.2045006-19.333673 7.0670678-12.402924 19.8616106-21.118843 34.783464-22.547591z" fill="#a4cbe6"/><path d="m247.846201 115.885381c-10.032811-1.074233-17.846201-9.567349-17.846201-19.885381 0-10.3180318 7.81339-18.8111485 17.846201-19.8853811-5.984674 4.5676335-9.846201 11.7755534-9.846201 19.8853811 0 8.109828 3.861527 15.317748 9.846201 19.885381z" fill="#a4cbe6"/><circle cx="290" cy="300" fill="#b6d6ec" r="20"/><path d="m287.846201 319.885381c-10.032811-1.074233-17.846201-9.567349-17.846201-19.885381s7.81339-18.811148 17.846201-19.885381c-5.984674 4.567633-9.846201 11.775553-9.846201 19.885381s3.861527 15.317748 9.846201 19.885381z" fill="#a4cbe6"/><circle cx="139" cy="388" fill="#b6d6ec" r="20"/><g fill="#a4cbe6"><path d="m136.846201 407.885381c-10.032811-1.074233-17.846201-9.567349-17.846201-19.885381s7.81339-18.811148 17.846201-19.885381c-5.984674 4.567633-9.846201 11.775553-9.846201 19.885381s3.861527 15.317748 9.846201 19.885381z"/><path d="m292.318342 496.433179c-3.689442.629036-7.406444 1.177232-11.149121 1.642701 1.356349-11.642865 10.712366-20.843978 22.426435-21.961754-5.989632 5.036589-10.134978 12.195848-11.277314 20.319053z"/><circle cx="210" cy="236" r="5"/><circle cx="190" cy="465" r="5"/><circle cx="64" cy="131" r="5"/><circle cx="415" cy="195" r="5"/><circle cx="387" cy="374" r="5"/></g></g></svg>