<svg xmlns="http://www.w3.org/2000/svg" viewBox="0 0 500 500" ><g fill="none" fill-rule="evenodd" opacity="0.5"><circle cx="250" cy="250" fill="#ecf3ff" r="250"/><g transform="translate(281 96)"><circle cx="45" cy="45" fill="#b6d6ec" r="45"/><path d="M40.658 89.793C17.842 87.61 0 68.388 0 45S17.842 2.391 40.658.207C25.838 9.604 16 26.153 16 45s9.837 35.396 24.658 44.793z" fill="#a4cbe6"/></g><circle cx="250" cy="96" fill="#b6d6ec" r="20"/><circle cx="88" cy="225" fill="#b6d6ec" r="25"/><path d="M85.596 249.886C72.916 248.676 63 237.996 63 225s9.917-23.676 22.596-24.886C78.506 206.076 74 215.012 74 225s4.506 18.924 11.596 24.886z" fill="#a4cbe6"/><path d="M330.862 13.367C429.25 46.979 500 140.227 500 250c0 108.722-69.402 201.234-166.32 235.652C407.11 433.352 455 347.519 455 250.5c0-98.254-49.117-185.037-124.138-237.133z" fill="#d6e1f4"/><path d="M327.256 487.834a248.552 248.552 0 01-46.087 10.242C282.617 485.646 293.182 476 306 476c8.976 0 16.847 4.73 21.256 11.834zM69.97 423.463c-18.764-19.47-34.399-41.976-46.096-66.709C31.618 343.164 46.24 334 63 334c24.853 0 45 20.147 45 45 0 22.482-16.487 41.113-38.03 44.463z" fill="#b6d6ec"/><path d="M58.658 334.207c-14.052 8.91-23.625 24.25-24.58 41.881a249.304 249.304 0 01-10.204-19.334c7.067-12.403 19.862-21.118 34.784-22.547zM247.846 115.885C237.813 114.811 230 106.318 230 96c0-10.318 7.813-18.811 17.846-19.885C241.862 80.682 238 87.89 238 96c0 8.11 3.862 15.318 9.846 19.885z" fill="#a4cbe6"/><circle cx="290" cy="300" fill="#b6d6ec" r="20"/><path d="M287.846 319.885C277.813 318.811 270 310.318 270 300s7.813-18.811 17.846-19.885C281.862 284.682 278 291.89 278 300s3.862 15.318 9.846 19.885z" fill="#a4cbe6"/><circle cx="139" cy="388" fill="#b6d6ec" r="20"/><g fill="#a4cbe6"><path d="M136.846 407.885C126.813 406.811 119 398.318 119 388s7.813-18.811 17.846-19.885C130.862 372.682 127 379.89 127 388s3.862 15.318 9.846 19.885zM292.318 496.433a249.67 249.67 0 01-11.149 1.643c1.357-11.643 10.713-20.844 22.427-21.962-5.99 5.037-10.135 12.196-11.278 20.32z"/><circle cx="210" cy="236" r="5"/><circle cx="190" cy="465" r="5"/><circle cx="64" cy="131" r="5"/><circle cx="415" cy="195" r="5"/><circle cx="387" cy="374" r="5"/></g></g></svg>