<svg height="1000" viewBox="0 0 1000 1000" width="1000" xmlns="http://www.w3.org/2000/svg"><g fill="none" fill-rule="evenodd"><g fill="#fefefe"><path d="m906.049124 111c0 4.195439 1.685601 8.230748 2.950876 12-3.769252-1.265275-7.804561-2.950876-12-2.950876s-8.230748 1.685601-12 2.950876c1.265275-3.769252 2.950876-7.804561 2.950876-12s-1.685601-8.230748-2.950876-12c3.769252 1.265275 7.804561 2.950876 12 2.950876s8.230748-1.685601 12-2.950876c-1.265275 3.769252-2.950876 7.804561-2.950876 12z" transform="matrix(.70710678 .70710678 -.70710678 .70710678 341.21407 -601.763635)"/><path d="m208.049124 434c0 4.195439 1.685601 8.230748 2.950876 12-3.769252-1.265275-7.804561-2.950876-12-2.950876s-8.230748 1.685601-12 2.950876c1.265275-3.769252 2.950876-7.804561 2.950876-12s-1.685601-8.230748-2.950876-12c3.769252 1.265275 7.804561 2.950876 12 2.950876s8.230748-1.685601 12-2.950876c-1.265275 3.769252-2.950876 7.804561-2.950876 12z" transform="matrix(.70710678 .70710678 -.70710678 .70710678 365.170094 -13.598592)"/><path d="m782.049124 661c0 4.195439 1.685601 8.230748 2.950876 12-3.769252-1.265275-7.804561-2.950876-12-2.950876s-8.230748 1.685601-12 2.950876c1.265275-3.769252 2.950876-7.804561 2.950876-12s-1.685601-8.230748-2.950876-12c3.769252 1.265275 7.804561 2.950876 12 2.950876s8.230748-1.685601 12-2.950876c-1.265275 3.769252-2.950876 7.804561-2.950876 12z" transform="matrix(.70710678 .70710678 -.70710678 .70710678 693.804041 -352.991124)"/></g><g fill="#c3d7f9"><circle cx="417" cy="231" r="7"/><circle cx="61" cy="949" r="7"/><circle cx="548" cy="739" r="7"/></g></g></svg>