<svg width="500" height="500" xmlns="http://www.w3.org/2000/svg"><g fill-rule="nonzero" fill="none"><g fill="#FEFEFE"><path d="M459.633 32.322c-1.752 1.752-2.734 4.142-3.78 6.245-1.045-2.103-2.027-4.493-3.78-6.245-1.752-1.753-4.141-2.734-6.244-3.78 2.103-1.046 4.492-2.027 6.245-3.78 1.752-1.752 2.734-4.142 3.78-6.245 1.045 2.103 2.027 4.493 3.78 6.245 1.752 1.753 4.141 2.734 6.244 3.78-2.103 1.046-4.492 2.027-6.245 3.78zM47.322 223.12c-1.753 1.752-2.734 4.141-3.78 6.244-1.046-2.103-2.027-4.492-3.78-6.245-1.752-1.752-4.142-2.734-6.245-3.78 2.103-1.045 4.493-2.027 6.245-3.78 1.753-1.752 2.734-4.141 3.78-6.244 1.046 2.103 2.027 4.492 3.78 6.245 1.752 1.752 4.142 2.734 6.245 3.78-2.103 1.045-4.493 2.027-6.245 3.78zM386.386 357.209c-1.752 1.752-2.734 4.142-3.78 6.245-1.046-2.103-2.027-4.493-3.78-6.245-1.752-1.752-4.142-2.734-6.244-3.78 2.102-1.046 4.492-2.027 6.244-3.78 1.753-1.752 2.734-4.141 3.78-6.244 1.046 2.103 2.028 4.492 3.78 6.245 1.752 1.752 4.142 2.733 6.245 3.78-2.103 1.045-4.493 2.027-6.245 3.779z"/></g><g transform="translate(62.09 95.292)" fill="#C3D7F9"><circle cx="110.225" cy="4.135" r="4.135"/><circle cx="5.044" cy="379.843" r="4.135"/><circle cx="187.607" cy="304.213" r="4.135"/></g></g></svg>