<svg height="111" viewBox="0 0 111 111" width="111" xmlns="http://www.w3.org/2000/svg"><g fill="none" fill-rule="nonzero"><circle cx="55.5" cy="55.5" fill="#e8e500" fill-opacity=".1" r="55.5" transform="matrix(1 0 0 -1 0 111)"/><circle cx="55.5" cy="55.5" fill="#f5f300" r="40.5" transform="matrix(1 0 0 -1 0 111)"/><circle cx="69" cy="36" fill="#ffd" r="8" transform="matrix(1 0 0 -1 0 72)"/><path d="m86.5954415 29.5499697c5.8712286 7.0278026 9.4045585 16.0762897 9.4045585 25.9500303 0 22.3675324-18.1324676 40.5-40.5 40.5-9.8737406 0-18.9222277-3.5333299-25.9500303-9.4045585 3.665034.9174375 7.5006455 1.4045585 11.4500303 1.4045585 25.9573832 0 47-21.0426168 47-47 0-3.9493848-.487121-7.7849963-1.4045585-11.4500303z" fill="#e8e500"/></g></svg>