<svg height="233" viewBox="0 0 100 233" width="100" xmlns="http://www.w3.org/2000/svg" xmlns:xlink="http://www.w3.org/1999/xlink"><defs><path id="a" d="m56.7445055 155.012397h-35.6043956c-10.3846154-37.891919-21.1401099-66.3108589-21.1401099-85.2568185 0-12.6306397 12.9807692-35.8824992 38.9423077-69.7555785 25.9615385 33.8730793 38.9423077 57.1249388 38.9423077 69.7555785 0 18.9459596-10.7554945 47.3648995-21.1401099 85.2568185z"/><mask id="b" fill="#fff"><use fill="#fff" fill-rule="evenodd" xlink:href="#a"/></mask></defs><g fill="none" fill-rule="nonzero"><g fill="#ffd048"><path d="m50 155.012397 22.1153846 77.987603h-44.2307692z" transform="matrix(1 0 0 -1 0 388.012396)"/><path d="m33.3210969 155.327007 16.6900919 66.584973-33.3297154-.012617z" transform="matrix(.9612617 .27563736 .27563736 -.9612617 -50.698798 360.740692)"/><path d="m66.6284346 155.327007 16.690092 66.584973-33.3297154-.012617z" transform="matrix(-.9612617 .27563736 -.27563736 -.9612617 182.715866 351.559946)"/></g><path d="m1.54939167 110.72314h31.10445453c.5522847 0 1 .447716 1 1v53.842976c0 .552284-.4477153 1-1 1h-6.768047c-.3929118 0-.7494132-.230091-.9112421-.588129l-24.33640759-53.842975c-.22747008-.503266-.003894-1.095644.49937115-1.323114.12942898-.0585.26983524-.088758.41187101-.088758z" fill="#fff" transform="matrix(1 0 0 -1 0 277.289256)"/><path d="m67.3461538 110.72314h31.1044545c.5522848 0 1 .447716 1 1 0 .142036-.0302574.282443-.0887578.411872l-24.3364076 53.842975c-.1618289.358038-.5183303.588129-.9112421.588129h-6.768047c-.5522847 0-1-.447716-1-1v-53.842976c0-.552284.4477153-1 1-1z" fill="#fff" transform="matrix(1 0 0 -1 0 277.289256)"/><g transform="translate(11.538462)"><use fill="#ff3c48" xlink:href="#a"/><ellipse cx="38.942308" cy="13.840393" fill="#fff" mask="url(#b)" rx="27.815934" ry="13.840393"/></g><rect fill="#fff" height="55.842975" rx="1" width="11.538462" x="44.230769" y="110.72314"/><ellipse cx="50.480769" cy="66.915289" fill="#001d4b" rx="17.826923" ry="17.849174" stroke="#001b4c" stroke-opacity=".1" stroke-width="2"/></g></svg>