<svg height="1023" viewBox="0 0 1432 1023" width="1432" xmlns="http://www.w3.org/2000/svg"><path d="m.88611517 145.502833c0-3.383511-1.99375914-8.034706 0-10.150535 1.23104108-1.306412 41.28421533-38.0034917 56.25113063-40.6698108 139.5390852-24.858544 216.3264662-124.4577216 246.7470112 20.2785138 7.485611 35.615378-34.090703 59.069446-47.828365 71.933459-32.319645 30.264274-67.406273 55.009434-100.485555 83.798308-3.767463 3.27882-.540011 5.523033 8.50793 6.879807 14.516346 2.176783 29.150464 2.707198 43.689372 4.601576 1.871982.243914 4.329687-.170422 5.476075 1.804539 3.036926 5.231921 5.793808 11.501728 6.072227 18.09051.363658 8.605987-.534484 18.155905-4.241191 25.240997-11.533557 22.045533-26.622922 40.436163-40.402023 60.091169-33.783775 48.190393-69.542427 93.979554-102.2740086 143.427062-15.9658059 24.119498-30.1237516 50.32348-43.6127237 76.963614-3.120965 6.16377-4.4411425 13.680822-5.9104141 20.842432-10.0578939 49.02478 1.7639437 84.917298 30.3951984 116.674763 76.245923 84.571118 109.225435 99.502893 209.981511 119.776316 127.517841 25.658236-71.713773-32.386244 76.588405 5.19933 1.442424.365566 1.550701 3.826516 1.064556 5.661743-1.293655 4.883621-3.54307 9.338809-6.080743 13.274644-2.799728 4.342272-7.851798 6.135732-9.742815 11.267094-4.056101 11.006417-7.40584 23.144466-7.451891 35.391533-.021744 5.782664 3.998533 10.597971 7.264529 14.436317 4.981866 5.854912 10.687833 11.005238 16.947729 14.019016 105.352016 50.72091 105.291144 55.35999 207.307346 58.0949 69.184794 1.85474 138.447548 3.46945 207.596906 0 28.416969-1.42578 41.14716-21.6839 67.007403-33.169696 10.122046-4.495696 20.871162-6.216032 31.476787-7.838469 12.642116-1.933978 25.39429-2.612441 38.119616-2.808315 48.106158-.74047 96.221627.688824 144.328222 0 26.72962-.382734 53.4302-2.558591 80.1568-3.214336 16.94766-.415816 33.92914-1.29 50.8517 0 11.20937.854485 22.30996 3.59237 33.33337 6.417394 3.38966.868685 12.08676 7.99158 9.75133 4.624132-3.57891-5.16042-9.35417-6.592379-13.77961-10.432494-8.75325-7.595523-17.63268-15.046471-25.71967-23.842479-15.65334-17.025741-31.72714-33.703403-45.39266-53.504599-9.51707-13.790135-18.06545-29.330508-23.62462-46.50073-7.02864-21.708865-16.11139-45.139151-13.6178-68.527391 4.32749-40.58905 42.32097-62.100967 65.94285-71.549995 13.48988-5.396108 27.74941-6.672038 41.74762-8.819687 5.21128-.799531 10.63928-1.633184 15.73839 0 13.47852 4.316998 26.53328 10.831813 39.4056 17.661931 31.07474 16.488407 34.57989 37.600603 74.54446 10.838516 6.74987-4.520019 9.64021-15.518711 13.60928-24.04549 10.5711-22.709949 20.97281-45.633055 29.94383-69.519888 16.45876-43.824202 33.11068-87.700856 46.27837-133.434424 8.48118-29.456529 14.64974-60.24449 18.44663-91.366096 3.35003-27.458934 2.19736-55.5577 2.87004-83.35845.28421-11.746036 3.98449-24.755353 0-35.256193-25.00237-65.891908-52.38169-69.155629-54.74372-127.208763-1.53245-37.663956 12.66212-120.6232632-31.86855-135.12618-24.24357-7.8957415-116.25293 11.8632371-125.37912 13.2069741-3.82422.563076-43.83947 4.7536314-48.80776 2.4022934-20.68469-9.7894326-38.79802-27.4350337-58.96788-38.95549849-5.97903-3.41505593-12.5722-5.02564861-19.06832-5.61662948-24.4657-2.22575288-49.02253-3.54880175-73.53952-2.80831474-6.50912.19659517-13.80364.53241172-19.06832 5.60535111-9.143306 8.8102953-14.996991 22.4299036-22.108699 34.0719632-15.613445 25.5596344-18.477329 52.5310397-20.149913 85.1629899-.455339 8.883623-1.589186 49.437526 4.232674 60.485912 19.51981 37.043561 43.380128 54.871788 67.160698 83.730637 11.91125 14.454864 69.38502 72.237295 56.60882 107.48289-5.32786 14.697929-15.33144 26.145458-25.43011 35.470481-35.00841 32.32648-72.884554 58.836665-109.09568 88.749513-9.548987 7.888111-19.220682 15.609905-28.172406 24.643244-6.208364 6.264966-42.365447 33.475401-30.437781 59.561085 5.634153 12.321834 17.059088 17.916145 26.034778 26.05304 29.338052 26.596354 56.447239 42.442306 80.080149 79.952382 2.16619 3.438178 1.31941 8.797177 1.66071 13.252088 2.20015 28.718428 6.56404 33.638775-12.893904 52.985794-10.024534 9.967388-21.549239 17.058238-32.847935 24.2485-13.610084 8.661183-27.431072 16.943817-41.764655 23.233448-53.560543 23.50257-109.382331 26.000556-164.282257 12.936293-56.924124-13.545952-82.17037-18.124741-135.948039-68.978526-50.119268-47.39429-96.274234-101.743227-144.711463-152.111409-31.318244-32.566748-102.362472-113.053242-151.567203-152.393369-5.642954-4.51165-10.972624-10.423292-17.373551-12.507715-5.768753-1.878559-31.852461.708061-38.647635 2.199283-34.337389 7.535444-77.37005-7.242621-102.802029 24.225944-18.572346 22.980715 50.758042 4.520592 75.949672 9.000141 29.611879 5.265553 59.001449 12.619842 88.324069 20.210843 16.572201 4.29019 32.993113 9.620415 49.30171 15.417535 19.198999 6.824555 37.681527 17.305354 57.179424 22.432683 19.993874 5.257756 40.450492 7.197235 60.807429 8.59412 21.449704 1.471871 43.120375 3.502084 64.435436 0 13.293745-2.184174 27.302655-6.385603 38.119616-16.849888 16.547306-16.007798 30.704519-37.01711 41.449546-60.125004 5.600417-12.044067 4.93592-27.620906 5.901898-41.707421 1.009786-14.72535-1.801442-29.765621 0-44.357839.294515-2.385659 3.708704-.604459 5.476075 0 6.898877 2.359485 13.306332 7.09639 20.311726 8.819687 20.21996 4.974025 40.608354 9.128726 61.114021 11.210702 16.385817 1.663681 33.235362 4.577125 49.30171 0 14.939067-4.255974 28.809649-14.539446 41.475096-25.861308 4.384113-3.919034 6.208402-11.597843 7.869197-18.248406 1.048219-4.197538 1.906183-9.633781 0-13.263366-35.242128-67.104952-37.988741-61.066514-77.337853-108.441551-50.604346-60.92597-93.170066-122.110545-159.070192-154.3332491-23.68534-11.5812478-47.827304-21.4822788-71.49557-33.1245799-7.715379-3.7951558-23.278973-24.0245762-22.60265-13.1618607.968967 15.5630081 15.195996 24.0108771 23.931215 34.5005413 20.519467 24.6407472 40.806295 50.0109674 63.677473 70.7041174 64.218708 58.103145 142.18446 71.947761 217.050161 86.899859 61.106051 12.204036 42.203364 11.808456 69.409041 11.808456" fill="none" stroke="#fff" stroke-dasharray="1 200" stroke-linecap="round" stroke-width="5" transform="translate(0 -1)"/></svg>