<svg xmlns="http://www.w3.org/2000/svg" viewBox="0 0 450 450"><g fill="none" fill-rule="nonzero"><path d="M426.633 14.322c-1.752 1.752-2.734 4.142-3.78 6.245-1.045-2.103-2.027-4.493-3.78-6.245-1.752-1.753-4.141-2.734-6.244-3.78 2.103-1.046 4.492-2.027 6.245-3.78 1.752-1.752 2.734-4.142 3.78-6.245 1.045 2.103 2.027 4.493 3.78 6.245 1.752 1.753 4.141 2.734 6.244 3.78-2.103 1.046-4.492 2.027-6.245 3.78zM14.322 205.12c-1.753 1.752-2.734 4.141-3.78 6.244-1.046-2.103-2.027-4.492-3.78-6.245-1.752-1.752-4.142-2.734-6.245-3.78 2.103-1.045 4.493-2.027 6.245-3.78 1.753-1.752 2.734-4.141 3.78-6.244 1.046 2.103 2.027 4.492 3.78 6.245 1.752 1.752 4.142 2.734 6.245 3.78-2.103 1.045-4.493 2.027-6.245 3.78zM353.386 339.209c-1.752 1.752-2.734 4.142-3.78 6.245-1.046-2.103-2.027-4.493-3.78-6.245-1.752-1.752-4.142-2.734-6.244-3.78 2.102-1.046 4.492-2.027 6.244-3.78 1.753-1.752 2.734-4.141 3.78-6.244 1.046 2.103 2.028 4.492 3.78 6.245 1.752 1.752 4.142 2.733 6.245 3.78-2.103 1.045-4.493 2.027-6.245 3.779z" fill="#FEFEFE"/><circle fill="#C3D7F9" cx="139.315" cy="81.427" r="4.135"/><circle fill="#C3D7F9" cx="34.134" cy="441.135" r="4.135"/><circle fill="#C3D7F9" cx="216.697" cy="381.505" r="4.135"/></g></svg>