<svg xmlns="http://www.w3.org/2000/svg" width="24" height="24" viewBox="0 0 24 24"><path id="fill" d="M12,18 C15.645249,18 18.8477509,20.0026987 18.994733,21.8670931 L19,22 L5,22 L5.00516859,21.8655509 C5.14942827,19.9805935 8.29410309,18 12,18 Z"/><path id="outline" fill-rule="nonzero" d="M12 16C16.608159 16 20.8312311 18.6546842 20.9950701 21.8100919L21 22 19 22C19 20.0992006 15.7320406 18 12 18 8.29410309 18 5.14942827 19.9805935 5.00516859 21.8655509L5 22 3 22C3 18.7433929 7.23642855 16 12 16zM12 1C15.8659932 1 19 4.13400675 19 8 19 11.8659932 15.8659932 15 12 15 8.13400675 15 5 11.8659932 5 8 5 4.13400675 8.13400675 1 12 1zM12 3C9.23857625 3 7 5.23857625 7 8 7 10.7614237 9.23857625 13 12 13 14.7614237 13 17 10.7614237 17 8 17 5.23857625 14.7614237 3 12 3z"/><path id="fill" fill-rule="nonzero" d="M12,3 C14.7614237,3 17,5.23857625 17,8 C17,10.7614237 14.7614237,13 12,13 C9.23857625,13 7,10.7614237 7,8 C7,5.23857625 9.23857625,3 12,3 Z"/></svg>
