<svg xmlns="http://www.w3.org/2000/svg" viewBox="0 0 24 24"><path d="M12 .5C5.37.5 0 5.78 0 12.292c0 5.21 3.438 9.63 8.205 11.188.6.11.82-.254.82-.567 0-.28-.01-1.022-.015-2.005-3.338.71-4.042-1.582-4.042-1.582-.546-1.361-1.335-1.725-1.335-1.725-1.087-.731.084-.716.084-.716 1.205.082 1.838 1.215 1.838 1.215 1.07 1.803 2.809 1.282 3.495.98.108-.762.417-1.281.76-1.576-2.665-.295-5.466-1.31-5.466-5.827 0-1.287.465-2.34 1.235-3.164-.135-.298-.54-1.497.105-3.121 0 0 1.005-.316 3.3 1.209.96-.262 1.98-.392 3-.398 1.02.006 2.04.136 3 .398 2.28-1.525 3.285-1.21 3.285-1.21.645 1.625.24 2.824.12 3.122.765.825 1.23 1.877 1.23 3.164 0 4.53-2.805 5.527-5.475 5.817.42.354.81 1.077.81 2.182 0 1.578-.015 2.846-.015 3.229 0 .309.21.678.825.56C20.565 21.917 24 17.495 24 12.292 24 5.78 18.627.5 12 .5z"/></svg>