<svg xmlns="http://www.w3.org/2000/svg" width="24" height="24" viewBox="0 0 24 24"><path id="outline" d="M0,20 L24,20 L24,21 C24,21.5522847 23.5522847,22 23,22 L1,22 C0.44771525,22 0,21.5522847 0,21 L0,20 Z"/><path id="outline" fill-rule="nonzero" d="M20,2 C21.1045695,2 22,2.8954305 22,4 L22,4 L22,16 C22,17.1045695 21.1045695,18 20,18 L20,18 L4,18 C2.8954305,18 2,17.1045695 2,16 L2,16 L2,4 C2,2.8954305 2.8954305,2 4,2 L4,2 Z M20,4 L4,4 L4,16 L20,16 L20,4 Z"/><polygon id="fill" fill-rule="nonzero" points="4 4 20 4 20 16 4 16"/></svg>
