<svg height="100" viewBox="0 0 100 100" width="100" xmlns="http://www.w3.org/2000/svg"><path d="m49.9986667 0c-27.613 0-49.99833337 22.387-49.99833337 49.999s22.38533337 50.001 49.99833337 50.001 50.001-22.3876667 50.001-50.001-22.388-49.999-50.001-49.999zm23.7686666 35.9816667-4.749 4.749-9.667-9.6663334-3.6673333 3.6673334 9.667 9.667-23.7106667 23.7086666-9.6663333-9.6653333-3.6673333 3.6673333 9.6663333 9.6663334-2.3626667 2.3626666-.045-.045c-.262.4313334-.688.746-1.194.8583334l-9.0143333 2.01c-.135.0303333-.2723333.045-.408.045-.492 0-.97-.1936667-1.3243333-.549-.4546667-.453-.644-1.1073334-.504-1.7343334l2.009-9.0116666c.1133333-.5056667.4286666-.9326667.8593333-1.194l-.0456667-.0456667 38.1566667-38.1583333c.5593333-.5583334 1.468-.5583334 2.0273333.0016666l7.6406667 7.639c.5593333.5593334.5593333 1.468-.0006667 2.0273334z" fill="#1b1b1b"/></svg>