<svg height="100" viewBox="0 0 100 100" width="100" xmlns="http://www.w3.org/2000/svg"><path d="m50 0c-27.6142375 0-50 22.3857625-50 50s22.3857625 50 50 50 50-22.3857625 50-50c0-13.2608245-5.267842-25.9785201-14.6446609-35.3553391-9.376819-9.37681888-22.0945146-14.6446609-35.3553391-14.6446609zm29.69 79.69c-3.825704 3.8355892-8.3595513 6.8921154-13.35 9-1.2648208.5393212-2.5565246 1.0132796-3.87 1.42v-7.49c0-3.94-1.3333333-6.8366667-4-8.69 1.5644151-.1428394 3.1200015-.3698349 4.66-.68 1.5091247-.3186927 2.9956639-.7362599 4.45-1.25 1.4832639-.5148482 2.9078666-1.1852495 4.25-2 1.3311097-.8353994 2.545103-1.844258 3.61-3 1.1671387-1.2340631 2.1475138-2.6321926 2.91-4.15.8529539-1.7626711 1.4747604-3.6280908 1.85-5.55.4729465-2.3534593.7008293-4.7495802.68-7.15.117499-4.7688139-1.6337863-9.3946475-4.88-12.89 1.5-3.9066667 1.3366667-8.1533333-.49-12.74l-1.22-.15c-1.5787075.0539336-3.1314419.4174841-4.57 1.07-2.6161978 1.035944-5.1002302 2.3786642-7.4 4-3.9283792-1.0811294-7.985587-1.6227633-12.06-1.61-4.0550792-.0188687-8.0933014.5229261-12 1.61-1.5684873-1.0806839-3.2089735-2.0529476-4.91-2.91-1.210258-.6100448-2.4676505-1.1216965-3.76-1.53-.8422344-.2694689-1.7102544-.450446-2.59-.54-.5124253-.0431806-1.0275747-.0431806-1.54 0-.165746.0201683-.3296056.0536091-.49.1-1.82 4.62-1.9833333 8.8666667-.49 12.74-3.2644095 3.4874736-5.0339894 8.1142249-4.93 12.89-.0206859 2.4004137.2071955 4.7965197.68 7.15.3768727 1.9291961 1.0020753 3.8014425 1.86 5.57.7675811 1.4965967 1.7477426 2.8742121 2.91 4.09 1.0649789 1.1556558 2.27896 2.1645044 3.61 3 1.3422043.8146185 2.7667927 1.485013 4.25 2 1.4669296.5221765 2.966891.9464418 4.49 1.27 1.5400018.3101461 3.0955872.5371413 4.66.68-2.6666667 1.82-4 4.7166667-4 8.69v7.64c-18.1290204-5.3605594-30.44238441-22.1726622-30.08318008-41.0741953s13.30244048-35.23366 31.62204138-39.90155061c18.3196009-4.66789062 37.5001644 3.47899341 46.8606585 19.90391741 9.3604942 16.424924 6.5937512 37.0794844-6.7595198 50.4618285z" fill="#1b1b1b"/></svg>