<svg height="100" viewBox="0 0 100 100" width="100" xmlns="http://www.w3.org/2000/svg"><path d="m92.615894 0h-85.22713802c-4.08102056 0-7.38875598 3.20679442-7.38875598 7.16477804v85.66742156c0 3.958216 3.3088979 7.1678004 7.38875598 7.1678004h85.22713802c4.0800906 0 7.384106-3.2116769 7.384106-7.1678004v-85.66742156c0-3.95682114-3.3040154-7.16477804-7.384106-7.16477804zm-62.2987448 83.7067967h-15.1092852v-45.1487732h15.1092852zm-7.5531313-51.3168479h-.1016012c-5.0668081 0-8.3512938-3.4650957-8.3512938-7.8032076 0-4.4255296 3.380972-7.7966975 8.5482188-7.7966975 5.1677116 0 8.3464112 3.3702379 8.44685 7.7966975 0 4.3390419-3.2779759 7.8032076-8.5421738 7.8032076zm62.0176559 51.3168479h-15.104403v-24.1561617c0-6.0697298-2.1884945-10.211384-7.6507802-10.211384-4.1786691 0-6.6591802 2.7941171-7.7484287 5.4917488-.403615.9634567-.5035888 2.3109937-.5035888 3.656671v25.2181959h-15.1016127s.1976225-40.9141211 0-45.1485407h15.1039377v6.4008017c2.0050546-3.0756675 5.5880665-7.4630681 13.6089819-7.4630681 9.9415735 0 17.3958938 6.4491604 17.3958938 20.32326z" fill="#1b1b1b"/></svg>