<?xml version="1.0" encoding="UTF-8"?>
<svg width="100px" height="100px" viewBox="0 0 100 100" version="1.1" xmlns="http://www.w3.org/2000/svg" xmlns:xlink="http://www.w3.org/1999/xlink">
    <!-- Generator: Sketch 55.1 (78136) - https://sketchapp.com -->
    <title>x copy 4</title>
    <desc>Created with Sketch.</desc>
    <g id="x-copy-4" stroke="none" stroke-width="1" fill="none" fill-rule="evenodd">
        <rect fill="#FEFEFE" x="0" y="0" width="100" height="100"></rect>
        <g id="linkedin" fill="#1B1B1B" fill-rule="nonzero">
            <path d="M92.615894,0 L7.38875598,0 C3.30773542,0 0,3.20679442 0,7.16477804 L0,92.8321996 C0,96.7904156 3.3088979,100 7.38875598,100 L92.615894,100 C96.6959846,100 100,96.7883231 100,92.8321996 L100,7.16477804 C100,3.2079569 96.6959846,0 92.615894,0 Z M30.3171492,83.7067967 L15.207864,83.7067967 L15.207864,38.5580235 L30.3171492,38.5580235 L30.3171492,83.7067967 Z M22.7640179,32.3899488 L22.6624167,32.3899488 C17.5956086,32.3899488 14.3111229,28.9248531 14.3111229,24.5867412 C14.3111229,20.1612116 17.6920949,16.7900437 22.8593417,16.7900437 C28.0270533,16.7900437 31.2057529,20.1602816 31.3061917,24.5867412 C31.3061917,28.9257831 28.0282158,32.3899488 22.7640179,32.3899488 Z M84.7816737,83.7067967 L69.6772708,83.7067967 L69.6772708,59.550635 C69.6772708,53.4809052 67.4887763,49.339251 62.0264906,49.339251 C57.8478215,49.339251 55.3673104,52.1333681 54.2780619,54.8309998 C53.8744469,55.7944565 53.7744731,57.1419935 53.7744731,58.4876708 L53.7744731,83.7058667 L38.6728604,83.7058667 C38.6728604,83.7058667 38.8704829,42.7917456 38.6728604,38.557326 L53.7767981,38.557326 L53.7767981,44.9581277 C55.7818527,41.8824602 59.3648646,37.4950596 67.38578,37.4950596 C77.3273535,37.4950596 84.7816737,43.94422 84.7816737,57.8183196 L84.7816737,83.7067967 Z"></path>
        </g>
    </g>
</svg>