<?xml version="1.0" encoding="UTF-8"?>
<svg width="100px" height="100px" viewBox="0 0 100 100" version="1.1" xmlns="http://www.w3.org/2000/svg" xmlns:xlink="http://www.w3.org/1999/xlink">
    <!-- Generator: Sketch 55.1 (78136) - https://sketchapp.com -->
    <title>x copy</title>
    <desc>Created with Sketch.</desc>
    <g id="x-copy" stroke="none" stroke-width="1" fill="none" fill-rule="evenodd">
        <rect fill="#FEFEFE" x="0" y="0" width="100" height="100"></rect>
        <g id="twitter" transform="translate(0.000000, 9.000000)" fill="#1B1B1B" fill-rule="nonzero">
            <path d="M100,10 C96.256642,11.6588281 92.28592,12.7475744 88.22,13.23 C92.4932072,10.6634009 95.690825,6.63440244 97.22,1.89 C93.2004754,4.27957565 88.8048267,5.9702098 84.22,6.89 C77.872462,0.082829797 67.7396482,-1.60247662 59.5304324,2.78359011 C51.3212166,7.16965683 47.0897253,16.5296062 49.22,25.59 C32.7437728,24.742695 17.3999551,16.9472215 7,4.14 C1.56342953,13.5129117 4.34277177,25.4969102 13.35,31.52 C10.0769235,31.4379569 6.87099347,30.5738987 4,29 L4,29.26 C4.03162752,39.0121335 10.9194477,47.3962155 20.48,49.32 C18.7161633,49.7968017 16.897145,50.0388892 15.07,50.04 C13.7739628,50.0406787 12.4810248,49.9133946 11.21,49.66 C13.8909227,58.0194763 21.5926544,63.7475387 30.37,63.91 C23.1013121,69.6095309 14.1267816,72.6984882 4.89,72.68 C3.25585333,72.6750498 1.62327729,72.5782303 -6.05071548e-16,72.39 C9.3750279,78.4245637 20.290694,81.6291311 31.44,81.6200195 C69.18,81.6200195 89.8,50.36 89.8,23.26 L89.73,20.6 C93.7663489,17.7169945 97.2460508,14.1254814 100,10 Z" id="Path"></path>
        </g>
    </g>
</svg>