<svg height="100" viewBox="0 0 100 100" width="100" xmlns="http://www.w3.org/2000/svg"><path d="m99.74 4.35c-.4469612-.3903713-1.0820455-.48053759-1.62-.23l-97 45.07c-.52434333.2449092-.85944469.7712803-.85944469 1.35s.33510136 1.1050908.85944469 1.35l27.42 13.47c.5019244.2483097 1.1006918.1942275 1.55-.14l26.69-20-21 21.55c-.3027929.3330639-.4387891.7851594-.37 1.23l2.09 27.15c.0433119.6031864.4469059 1.120368 1.0214832 1.3089697.5745774.1886017 1.2061607.0112112 1.5985168-.4489697l14.57-16.89 18 8.61c.3905026.1882803.8436435.1971488 1.2412139.0242921.3975705-.1728568.7001427-.5102962.8287861-.9242921l25.4-80.91c.182858-.56034018.018211-1.17580556-.42-1.57z" fill="#1b1b1b"/></svg>