<svg height="100" viewBox="0 0 100 100" width="100" xmlns="http://www.w3.org/2000/svg"><path d="m100 19c-3.743358 1.6588281-7.71408 2.7475744-11.78 3.23 4.2732072-2.5665991 7.470825-6.5955976 9-11.34-4.0195246 2.3895756-8.4151733 4.0802098-13 5-6.347538-6.8071702-16.4803518-8.49247662-24.6895676-4.1064099-8.2092158 4.3860667-12.4407071 13.7460161-10.3104324 22.8064099-16.4762272-.847305-31.8200449-8.6427785-42.22-21.45-5.43657047 9.3729117-2.65722823 21.3569102 6.35 27.38-3.2730765-.0820431-6.47900653-.9461013-9.35-2.52v.26c.03162752 9.7521335 6.9194477 18.1362155 16.48 20.06-1.7638367.4768017-3.582855.7188892-5.41.72-1.2960372.0006787-2.5889752-.1266054-3.86-.38 2.6809227 8.3594763 10.3826544 14.0875387 19.16 14.25-7.2686879 5.6995309-16.2432184 8.7884882-25.48 8.77-1.63414667-.0049502-3.26672271-.1017697-4.89-.29 9.3750279 6.0345637 20.290694 9.2391311 31.44 9.2300195 37.74 0 58.36-31.2600195 58.36-58.3600195l-.07-2.66c4.0363489-2.8830055 7.5160508-6.4745186 10.27-10.6z" fill="#1b1b1b"/></svg>