<svg xmlns="http://www.w3.org/2000/svg" viewBox="0 0 48 48"><path fill="#FFCC80" d="M36.694 27.403l.103.042c1.564.745.98 5.81-1.425 9.122l.536-3.45c.245-1.596.475-3.147.65-4.55l.133-1.145c-.293 2.677-.852 6.099-1.358 9.374-.761 5.69-6.36 10.988-12.037 11.204-6.854 0-9.83-5.335-11.55-11.843l-.166-.644-.028-.163a3.166 3.166 0 01-1.17-.556c-2.193-2.361-2.298-10.16-.861-9.867.123.015.24.065.335.144.144.316.316.622.479.929.091.13.273.22.32.192a.388.388 0 00.15-.283 22.244 22.244 0 011.021-7.988l.171-.514a11.975 11.975 0 012.247-4.1c1.83-2.065 4.65-3.066 7.414-3.238 2.58-.161 5.147.329 7.666.92l.54.129c2.15.517 4.511 1.236 5.632 3.152.434.83.716 1.73.834 2.658.374 2.113.614 4.247.718 6.39l-.1.143c-.048.071-.085.137-.082.178.066.743.02 1.804-.102 3.072l-.07.692z"/><path d="M26.803 23.572a.79.79 0 01.215-.958 2.16 2.16 0 01.925-.432 21.349 21.349 0 013.525-.665 4.838 4.838 0 012.476.225 2.735 2.735 0 011.351 1.35c.077.168.125.393 0 .513a.479.479 0 01-.393.038c-2.246-.436-4.56-.249-6.84-.062-.426.034-1.173.086-1.235-.033m-14.533-1.332a.096.096 0 010-.134 5.068 5.068 0 013.104-1.552 12.41 12.41 0 014.186.311c.48.096.958.211 1.437.33a4.31 4.31 0 011.073.389c.315.178.557.461.685.8a.829.829 0 01-.297.991c-.234.1-.494.123-.742.067-2.75-.35-5.475-1.12-8.244-.958a1.69 1.69 0 01-1.202-.244z"/><path d="M20.432.36c-1.964-.321-3.789.306-5.566 1.537a14.57 14.57 0 00-2.677 2.75 14.173 14.173 0 00-2.223 4.416 19.758 19.758 0 00-.479 2.079l-.426 1.892c-.44 2.055-.867 4.268-.043 6.198.479 1.116.24 2.395.359 3.592.038.623.15 1.239.335 1.835.183.46.4.907.647 1.336.086.13.273.22.32.192a.388.388 0 00.15-.283 22.244 22.244 0 011.168-8.502 11.975 11.975 0 012.247-4.1c1.844-2.064 4.655-3.066 7.414-3.238 2.76-.172 5.513.398 8.205 1.049 2.156.517 4.512 1.245 5.633 3.152.434.83.716 1.73.834 2.658.571 3.22.831 6.487.776 9.757a33.53 33.53 0 002.361-13.11c-.038-1.695-.637-3.353-.896-5.034a13.996 13.996 0 00-.776-3.271 4.708 4.708 0 00-2.165-2.482c-1.077-.527-2.395-.479-3.396-1.15-.512-.344-.914-.861-1.484-1.106a3.568 3.568 0 00-1.212-.21L26.61.149a13.287 13.287 0 00-2.476 0c-.583.114-1.172.197-1.763.249a15.14 15.14 0 01-1.94-.038z"/><path d="M39.319 23.433c-.091-.158-.704-.269-1.068-.336-4.455-.8-7.952-.833-12.368.158-1.988.197-3.731-.536-5.695-1.087-2.908-.819-6.007-.541-9.024-.369-.551.034-1.552-.038-1.658.503a4.225 4.225 0 000 1.408c.182.125.604.211.738.403.226.648.395 1.315.503 1.992l.263 1.298c.118.91.554 1.748 1.231 2.367 1.02.814 2.429.895 3.732.929.94.05 1.882.016 2.816-.1a5.628 5.628 0 002.601-1.026c.359-.339.651-.741.862-1.188.14-.234.264-.479.393-.718l.824-1.58a1.73 1.73 0 01.627-.782c.322-.154.7-.136 1.006.048.3.186.54.456.69.776.148.318.271.646.369.982.19.817.513 1.598.958 2.309a5.13 5.13 0 002.955 1.753 15.27 15.27 0 003.487.268c.915 0 1.916-.028 2.625-.603.32-.226.586-.518.78-.858.531-1.072.953-2.196 1.26-3.353.069-.488.298-.94.652-1.283.09-.055.171-.121.244-.197.143-.25.223-.53.235-.819.08-.295.066-.608-.038-.895z"/><path fill="#FFF" d="M19.819 22.71a7.597 7.597 0 011.638.478 2.17 2.17 0 011.198 1.126c.186.63.16 1.302-.072 1.916a6.04 6.04 0 01-1.207 2.505 4.761 4.761 0 01-2.822 1.384c-1.061.12-2.133.12-3.194 0-.997-.072-2.07-.172-2.826-.828a3.142 3.142 0 01-.901-1.504 9.369 9.369 0 01-.287-1.753 6.917 6.917 0 01-.03-1.648c.062-.55.317-1.059.72-1.437a3.271 3.271 0 012.035-.585c1.923-.098 3.85.017 5.748.345zm7.501 1.101c1.858-.857 5.413-.958 8.143-.479.64.058 1.246.318 1.729.742.325.372.514.844.536 1.337.02.49-.018.98-.115 1.46a9.211 9.211 0 01-.45 1.869 3.396 3.396 0 01-1.13 1.537c-.896.671-2.093.676-3.195.652-.846.008-1.69-.061-2.524-.206a4.68 4.68 0 01-2.266-1.078c-1.025-.958-1.384-2.419-1.533-3.832a3.09 3.09 0 01.039-1.183c.1-.385.389-.693.766-.819z"/></svg>