<svg height="1080" viewBox="0 0 1920 1080" width="1920" xmlns="http://www.w3.org/2000/svg"><g fill="none" fill-rule="evenodd"><path d="m0 0h1920v1080h-1920z" fill="#fefefe"/><g stroke-width="6"><circle cx="1124.32536" cy="744.520201" r="12" stroke="#f25e38" transform="matrix(-.27563736 .9612617 -.9612617 -.27563736 2149.910182 -131.033123)"/><path d="m1435 901.970328v-31.980219" stroke="#f25e38" stroke-linecap="round" stroke-linejoin="round" transform="matrix(-.58778525 .80901699 -.80901699 -.58778525 2995.252892 245.822642)"/><path d="m645.826979 895.568044v-31.980219" stroke="#f25e38" stroke-linecap="round" stroke-linejoin="round" transform="matrix(-.37460659 .92718385 -.92718385 -.37460659 1703.297654 610.286876)"/><path d="m580.446288 56.560359h24v24h-24z" stroke="#f25e38" stroke-linecap="round" stroke-linejoin="round" transform="matrix(-.69465837 -.7193398 .7193398 -.69465837 954.675866 542.356581)"/><path d="m1565.39414 407.626742-13.5 24h27z" stroke="#f25e38" stroke-linecap="round" stroke-linejoin="round" transform="matrix(-.8571673 .51503807 -.51503807 -.8571673 3123.322564 -26.920522)"/><path d="m1056.5 289-13.5 24h27z" stroke="#f25e38" stroke-linecap="round" stroke-linejoin="round" transform="matrix(.61566148 -.78801075 .78801075 .61566148 168.862414 948.219257)"/><path d="m172.926583 942.924917 8-8-8-8 8-8-8-8" stroke="#f25e38" stroke-linecap="round" stroke-linejoin="round" transform="matrix(-.92718385 .37460659 -.37460659 -.92718385 688.20224 1720.07687)"/><circle cx="1798.21769" cy="113.480116" r="13.5" stroke="#ebebeb" transform="matrix(-.99862953 .05233596 -.05233596 -.99862953 3599.910076 132.693269)"/><circle cx="678" cy="538" r="12" stroke="#ebebeb" transform="matrix(.61566148 .78801075 -.78801075 .61566148 684.531305 -327.497165)"/><circle cx="123.265527" cy="457.421161" r="11.5" stroke="#ebebeb" transform="matrix(.25881905 -.96592583 .96592583 .25881905 -350.472852 458.097209)"/><path d="m1235.39608 67.4958h28v28h-28z" stroke="#ebebeb" stroke-linecap="round" stroke-linejoin="round" transform="matrix(.92718385 .37460659 -.37460659 .92718385 121.505071 -462.097799)"/><path d="m411.040258 236.744028h26v26h-26z" stroke="#ebebeb" stroke-linecap="round" stroke-linejoin="round" transform="matrix(.43837115 -.89879405 .89879405 .43837115 13.684798 521.388311)"/><path d="m1898.17616 1035.56052-13.5 24h27z" stroke="#ebebeb" stroke-linecap="round" stroke-linejoin="round" transform="matrix(-.92050485 .39073113 -.39073113 -.92050485 4054.771036 1270.168551)"/><path d="m1483 742 6-6.25-6-6.25 6-6.25-6-6.25" stroke="#ebebeb" stroke-linecap="round" stroke-linejoin="round" transform="matrix(.75470958 -.65605903 .65605903 .75470958 -114.093498 1153.843078)"/></g></g></svg>