<svg height="115" viewBox="0 0 142 115" width="142" xmlns="http://www.w3.org/2000/svg"><g fill="none" fill-rule="nonzero"><path d="m95.3657965 17.3123077c24.5188255 4.0188597 16.0749185 29.1399371 19.7125995 38.3061184 1.331313 3.354627 6.78922 3.9897098 9.069284 6.9019699 7.880437 10.0654535-6.519115 35.4843252-20.367297 36.2877231-6.9279922.4019252-13.8728838-1.0155378-20.8097344-.7661968-17.7816479.6391508-38.6123892 6.2366747-49.4400041-11.8512537-3.1860515-5.3224162-3.5952155-11.733651-6.6365659-17.1241256-3.6867647-6.5344038-14.6047129-9.3778446-7.7626457-19.3681646 2.9653268-4.3297681 9.7536877-5.9334873 12.3620684-10.4453199 7.0042407-12.1155473-8.421228-9.6245998 6.2396125-18.2635023 11.2547491-6.6318627 11.4316075-.830263 24.7722435-1.830263 10.9074912-.6075023 22.1090979-3.6092286 32.8604392-1.8469855z" fill="#494a4f" transform="matrix(-1 0 0 -1 143.310438 116.120476)"/><path d="m18.622422 37.5449272c3.5965969-9.8562692 12.3572144-19.7365209 20.9076321-20.2325707 6.9279924-.4019252 13.872884 1.0155377 20.8097346.7661968 17.7816479-.6391508 38.6123892-6.2366748 49.4400043 11.8512537 3.186051 5.3224162 3.595215 11.733651 6.636566 17.1241256.558547.9899658 1.283067 1.8952152 2.086658 2.7534345-11.564287 9.7007001-27.194499 15.6525567-44.3977538 15.6525567-23.5998214 0-44.2393365-11.2007897-55.4828412-27.9150012z" fill="#98999d"/><path d="m29.313155 67.3504835c-.1254579-2.7015183-.3768934-5.073949-1.0811135-6.8484341-1.3313136-3.3546269-6.78922-3.9897097-9.0692843-6.9019698-.1373541-.1754384-.2679396-.355541-.3918774-.5400964-.4196889-.814332-.818328-1.6389236-1.195303-2.4732318-1.2068812-3.6657375-.6648339-8.3510648 1.0468452-13.0418242 11.2435047 16.7142069 31.8830198 27.9149966 55.4828412 27.9149966 17.2032548 0 32.8334668-5.9518566 44.3977538-15.6525567 4.500622 4.8065733 11.481478 8.1379492 5.675987 16.6147301-2.965326 4.3297681-9.753687 5.9334873-12.362068 10.4453199-.24639.426192-.465025.8343093-.65819 1.2254723-9.798372 5.3073592-21.3242316 8.3670344-33.658746 8.3670344-19.1624364 0-36.3731387-7.3846968-48.186845-19.1094403z" fill="#6f7075"/><g fill="#494a4f"><circle cx="74.385586" cy="27.355778" r="6" transform="matrix(-1 0 0 -1 148.771172 54.711556)"/><circle cx="93.385586" cy="27.355778" r="3" transform="matrix(-1 0 0 -1 186.771172 54.711556)"/><circle cx="83.385586" cy="45.355778" r="3" transform="matrix(-1 0 0 -1 166.771172 90.711556)"/></g><path d="m122.79895 100.194478c-2.421775 2.96677-5.521679 5.276236-10.093187 7.969998-7.482581 4.409112-13.7649179 6.055308-20.7605144 5.247644-.9883218-.114105-1.9149086-.264938-2.9662322-.467095-.4890939-.094047-1.93953-.389693-2.0044552-.402611-2.2103728-.43977-3.5794-.556297-5.967767-.377267l-.1530205.01147-.1532123.008533c-2.5284989.140827-4.7137667.381157-9.8773449 1.040981-.9979246.12752-1.4673942.187219-2.043099.259392-10.4804129 1.313874-16.9328158 1.587529-24.417762.360678-10.561321-1.731097-18.8690462-6.533652-24.3547914-14.1387578-4.3271065-5.998839-6.3337233-12.696675-7.1173887-20.6289582-.2630339-2.6624363-.3458544-4.5470474-.4580857-8.8019497-.0174985-.6634017-.0336061-1.2275903-.0494951-1.7162898-.3501809-.2085222-.6991965-.4263868-1.0756505-.671305-2.15753255-1.4036752-4.06295518-3.0390249-5.7366418-5.1767763-16.3581119-20.8937423 6.0216285-60.61484522 32.0388014-62.12422316 3.9852901-.23120533 6.8820247-.10163463 13.0425075.38452527 1.5550078.12271481 2.2334252.17418347 3.0479768.22853809 2.1188691.14139109 3.6922729.18616582 5.0711877.13660155 2.2317269-.0802181 4.1000583-.21182923 8.7207541-.5869393 1.6311464-.13241716 2.4651932-.19881122 3.4471281-.27275199 10.8656511-.8181954 18.0158418-.68999894 25.6055868 1.20618938 10.9446523 2.73436354 19.8500213 9.05359696 25.9695723 19.27653296 2.27298 3.7970959 3.310317 6.6110702 5.043595 12.404573l.014525.0485481c.813558 2.7192721 1.224975 3.9157537 1.616009 4.7063654.27067.2896235.675412.6782852 1.466065 1.4041877.210313.1929169.210313.1929169.436562.4002894.190785.174953.336928.3093107.483377.4445809 4.440647 4.1016623 6.928839 7.1075409 8.660546 12.3008014 2.498959 7.4941887.899466 15.1084611-3.848905 22.0417094-1.705333 2.4900096-3.726133 4.507961-6.089271 6.3335697-1.205461.9312625-2.153599 1.5788085-3.730241 2.5809266 1.514204 5.7443544.17287 11.7416329-3.767129 16.5682894z" fill="#98999d" fill-opacity=".12"/></g></svg>