<?xml version="1.0" encoding="UTF-8"?>
<svg width="111px" height="111px" viewBox="0 0 111 111" version="1.1" xmlns="http://www.w3.org/2000/svg" xmlns:xlink="http://www.w3.org/1999/xlink">
    <!-- Generator: Sketch 55.1 (78136) - https://sketchapp.com -->
    <title>Artboard Copy 12</title>
    <desc>Created with Sketch.</desc>
    <g id="Artboard-Copy-12" stroke="none" stroke-width="1" fill="none" fill-rule="evenodd">
        <circle id="Oval" fill-opacity="0.1" fill="#00FFCD" fill-rule="nonzero" transform="translate(55.500000, 55.500000) scale(1, -1) translate(-55.500000, -55.500000) " cx="55.5" cy="55.5" r="55.5"></circle>
        <circle id="Oval" fill="#00FFCD" fill-rule="nonzero" transform="translate(55.500000, 55.500000) scale(1, -1) translate(-55.500000, -55.500000) " cx="55.5" cy="55.5" r="40.5"></circle>
        <circle id="Oval" fill="#FFFFDD" fill-rule="nonzero" transform="translate(69.000000, 36.000000) scale(1, -1) translate(-69.000000, -36.000000) " cx="69" cy="36" r="8"></circle>
        <path d="M86.5954415,29.5499697 C92.4666701,36.5777723 96,45.6262594 96,55.5 C96,77.8675324 77.8675324,96 55.5,96 C45.6262594,96 36.5777723,92.4666701 29.5499697,86.5954415 C33.2150037,87.512879 37.0506152,88 41,88 C66.9573832,88 88,66.9573832 88,41 C88,37.0506152 87.512879,33.2150037 86.5954415,29.5499697 Z" id="Combined-Shape" fill="#00F4C0" fill-rule="nonzero"></path>
    </g>
</svg>