<?xml version="1.0" encoding="UTF-8"?>
<svg width="1432px" height="1023px" viewBox="0 0 1432 1023" version="1.1" xmlns="http://www.w3.org/2000/svg" xmlns:xlink="http://www.w3.org/1999/xlink">
    <!-- Generator: Sketch 55.1 (78136) - https://sketchapp.com -->
    <title>Path 3</title>
    <desc>Created with Sketch.</desc>
    <g id="3.0" stroke="none" stroke-width="1" fill="none" fill-rule="evenodd" stroke-dasharray="1,200" stroke-linecap="round">
        <g id="Landing-/-Desktop-Copy-2" transform="translate(0.000000, -1.000000)" fill-rule="nonzero" stroke="#FFFFFF" stroke-width="5">
            <path d="M0.886115173,145.502833 C0.886115173,142.119322 -1.10764397,137.468127 0.886115173,135.352298 C2.11715625,134.045886 42.1703305,97.3488063 57.1372458,94.6824872 C196.676331,69.8239432 273.463712,-29.7752344 303.884257,114.961001 C311.369868,150.576379 269.793554,174.030447 256.055892,186.89446 C223.736247,217.158734 188.649619,241.903894 155.570337,270.692768 C151.802874,273.971588 155.030326,276.215801 164.078267,277.572575 C178.594613,279.749358 193.228731,280.279773 207.767639,282.174151 C209.639621,282.418065 212.097326,282.003729 213.243714,283.97869 C216.28064,289.210611 219.037522,295.480418 219.315941,302.0692 C219.679599,310.675187 218.781457,320.225105 215.07475,327.310197 C203.541193,349.35573 188.451828,367.74636 174.672727,387.401366 C140.888952,435.591759 105.1303,481.38092 72.3987184,530.828428 C56.4329125,554.947926 42.2749668,581.151908 28.7859947,607.792042 C25.6650297,613.955812 24.3448522,621.472864 22.8755806,628.634474 C12.8176867,677.659254 24.6395243,713.551772 53.270779,745.309237 C129.516702,829.880355 162.496214,844.81213 263.25229,865.085553 C390.770131,890.743789 191.538517,832.699309 339.840695,870.284883 C341.283119,870.650449 341.391396,874.111399 340.905251,875.946626 C339.611596,880.830247 337.362181,885.285435 334.824508,889.22127 C332.02478,893.563542 326.97271,895.357002 325.081693,900.488364 C321.025592,911.494781 317.675853,923.63283 317.629802,935.879897 C317.608058,941.662561 321.628335,946.477868 324.894331,950.316214 C329.876197,956.171126 335.582164,961.321452 341.84206,964.33523 C447.194076,1015.05614 447.133204,1019.69522 549.149406,1022.43013 C618.3342,1024.28487 687.596954,1025.89958 756.746312,1022.43013 C785.163281,1021.00435 797.893472,1000.74623 823.753715,989.260434 C833.875761,984.764738 844.624877,983.044402 855.230502,981.421965 C867.872618,979.487987 880.624792,978.809524 893.350118,978.61365 C941.456276,977.87318 989.571745,979.302474 1037.67834,978.61365 C1064.40796,978.230916 1091.10854,976.055059 1117.83514,975.399314 C1134.7828,974.983498 1151.76428,974.109314 1168.68684,975.399314 C1179.89621,976.253799 1190.9968,978.991684 1202.02021,981.816708 C1205.40987,982.685393 1214.10697,989.808288 1211.77154,986.44084 C1208.19263,981.28042 1202.41737,979.848461 1197.99193,976.008346 C1189.23868,968.412823 1180.35925,960.961875 1172.27226,952.165867 C1156.61892,935.140126 1140.54512,918.462464 1126.8796,898.661268 C1117.36253,884.871133 1108.81415,869.33076 1103.25498,852.160538 C1096.22634,830.451673 1087.14359,807.021387 1089.63718,783.633147 C1093.96467,743.044097 1131.95815,721.53218 1155.58003,712.083152 C1169.06991,706.687044 1183.32944,705.411114 1197.32765,703.263465 C1202.53893,702.463934 1207.96693,701.630281 1213.06604,703.263465 C1226.54456,707.580463 1239.59932,714.095278 1252.47164,720.925396 C1283.54638,737.413803 1287.05153,758.525999 1327.0161,731.763912 C1333.76597,727.243893 1336.65631,716.245201 1340.62538,707.718422 C1351.19648,685.008473 1361.59819,662.085367 1370.56921,638.198534 C1387.02797,594.374332 1403.67989,550.497678 1416.84758,504.76411 C1425.32876,475.307581 1431.49732,444.51962 1435.29421,413.398014 C1438.64424,385.93908 1437.49157,357.840314 1438.16425,330.039564 C1438.44846,318.293528 1442.14874,305.284211 1438.16425,294.783371 C1413.16188,228.891463 1385.78256,225.627742 1383.42053,167.574608 C1381.88808,129.910652 1396.08265,46.9513448 1351.55198,32.448428 C1327.30841,24.5526865 1235.29905,44.3116651 1226.17286,45.6554021 C1222.34864,46.2184781 1182.33339,50.4090335 1177.3651,48.0576955 C1156.68041,38.2682629 1138.56708,20.6226618 1118.39722,9.10219701 C1112.41819,5.68714108 1105.82502,4.0765484 1099.3289,3.48556753 C1074.8632,1.25981465 1050.30637,-0.0632342186 1025.78938,0.677252786 C1019.28026,0.873847959 1011.98574,1.20966451 1006.72106,6.2826039 C997.577754,15.0928992 991.724069,28.7125075 984.612361,40.3545671 C968.998916,65.9142015 966.135032,92.8856068 964.462448,125.517557 C964.007109,134.40118 962.873262,174.955083 968.695122,186.003469 C988.214932,223.04703 1012.07525,240.875257 1035.85582,269.734106 C1047.76707,284.18897 1105.24084,341.971401 1092.46464,377.216996 C1087.13678,391.914925 1077.1332,403.362454 1067.03453,412.687477 C1032.02612,445.013957 994.149976,471.524142 957.93885,501.43699 C948.389863,509.325101 938.718168,517.046895 929.766444,526.080234 C923.55808,532.3452 887.400997,559.555635 899.328663,585.641319 C904.962816,597.963153 916.387751,603.557464 925.363441,611.694359 C954.701493,638.290713 981.81068,654.136665 1005.44359,691.646741 C1007.60978,695.084919 1006.763,700.443918 1007.1043,704.898829 C1009.30445,733.617257 1013.66834,738.537604 994.210396,757.884623 C984.185862,767.852011 972.661157,774.942861 961.362461,782.133123 C947.752377,790.794306 933.931389,799.07694 919.597806,805.366571 C866.037263,828.869141 810.215475,831.367127 755.315549,818.302864 C698.391425,804.756912 673.145179,800.178123 619.36751,749.324338 C569.248242,701.930048 523.093276,647.581111 474.656047,597.212929 C443.337803,564.646181 372.293575,484.159687 323.088844,444.81956 C317.44589,440.30791 312.11622,434.396268 305.715293,432.311845 C299.94654,430.433286 273.862832,433.019906 267.067658,434.511128 C232.730269,442.046572 189.697608,427.268507 164.265629,458.737072 C145.693283,481.717787 215.023671,463.257664 240.215301,467.737213 C269.82718,473.002766 299.21675,480.357055 328.53937,487.948056 C345.111571,492.238246 361.532483,497.568471 377.84108,503.365591 C397.040079,510.190146 415.522607,520.670945 435.020504,525.798274 C455.014378,531.05603 475.470996,532.995509 495.827933,534.392394 C517.277637,535.864265 538.948308,537.894478 560.263369,534.392394 C573.557114,532.20822 587.566024,528.006791 598.382985,517.542506 C614.930291,501.534708 629.087504,480.525396 639.832531,457.417502 C645.432948,445.373435 644.768451,429.796596 645.734429,415.710081 C646.744215,400.984731 643.932987,385.94446 645.734429,371.352242 C646.028944,368.966583 649.443133,370.747783 651.210504,371.352242 C658.109381,373.711727 664.516836,378.448632 671.52223,380.171929 C691.74219,385.145954 712.130584,389.300655 732.636251,391.382631 C749.022068,393.046312 765.871613,395.959756 781.937961,391.382631 C796.877028,387.126657 810.74761,376.843185 823.413057,365.521323 C827.79717,361.602289 829.621459,353.92348 831.282254,347.272917 C832.330473,343.075379 833.188437,337.639136 831.282254,334.009551 C796.040126,266.904599 793.293513,272.943037 753.944401,225.568 C703.340055,164.64203 660.774335,103.457455 594.874209,71.2347509 C571.188869,59.6535031 547.046905,49.7524721 523.378639,38.110171 C515.66326,34.3150152 500.099666,14.0855948 500.775989,24.9483103 C501.744956,40.5113184 515.971985,48.9591874 524.707204,59.4488516 C545.226671,84.0895988 565.513499,109.459819 588.384677,130.152969 C652.603385,188.256114 730.569137,202.10073 805.434838,217.052828 C866.540889,229.256864 847.638202,228.861284 874.843879,228.861284" id="Path-3"></path>
        </g>
    </g>
</svg>