<svg height="430" viewBox="0 0 485 430" width="485" xmlns="http://www.w3.org/2000/svg" xmlns:xlink="http://www.w3.org/1999/xlink"><mask id="a" fill="#fff"><path d="m0 .08816821h476.575332v427.91183179h-476.575332z" fill="#fff" fill-rule="evenodd"/></mask><g fill="none" fill-rule="evenodd"><path d="m131.084 427.7655c-.971.519-2.188.148-2.707-.822l-128.143-240.046c-.518-.971-.148-2.189.823-2.706l344.434-183.869c.971-.518 2.189-.148 2.707.822l128.143 240.046c.518.971.148 2.188-.822 2.706z" fill="#00bcd4" mask="url(#a)" transform="translate(0 .912)"/><path d="m113.8526 415.9266c-1.041.354-2.183-.21-2.536-1.252l-87.341-257.71c-.352-1.041.211-2.183 1.252-2.536l369.78-125.323c1.042-.353 2.184.211 2.536 1.253l87.341 257.709c.354 1.042-.21 2.183-1.252 2.536z" fill="#c0ca33"/><path d="m135.6602 375.2176c-1.041.354-2.183-.21-2.536-1.252l-25.237-74.468c-.354-1.042.21-2.183 1.252-2.536l30.061-10.188c1.041-.354 2.183.21 2.536 1.252l25.237 74.467c.354 1.042-.209 2.184-1.251 2.537z" fill="#f9fbe7"/><path d="m460.0547 216.7029-8.938-26.369-140.462 47.604 32.61 19.097-14.28 34.988 140.463-47.605z" fill="#9e9d24"/></g></svg>