<svg xmlns="http://www.w3.org/2000/svg" viewBox="0 0 507 490"><mask id="a" fill="#fff"><path d="M.594.585H455.76V288H.594z" fill-rule="evenodd"/></mask><mask id="b" fill="#fff"><path d="M0 .114h489.924v266.722H0z" fill-rule="evenodd"/></mask><g fill="none" fill-rule="evenodd"><path d="M430.312 231.51L65.035 287.647c-16.376 2.517-31.692-8.718-34.209-25.095L.594 65.836 425.175.586 455.407 197.3c2.517 16.376-8.719 31.692-25.095 34.21" fill="#cfd8dc" mask="url(#a)" transform="translate(51 201.886)"/><path d="M476.175 201.585L51.594 266.836 1.156 99.94c-4.488-14.85 4.486-29.098 20.14-31.504L463.715.442c15.654-2.405 27.338 8.666 26.123 24.394z" fill="#1e272b" mask="url(#b)" transform="translate(0 .886)"/><path d="M453.29 184.603l-383.313 58.91L28.91 96.56l433.174-66.573z" fill="#263238"/><path d="M142.064 135.68c1.775 11.554-10.479 23.024-27.373 25.62-16.893 2.597-32.027-4.664-33.802-16.218-1.776-11.553 10.479-23.024 27.372-25.62s32.027 4.665 33.803 16.218" fill="#c2185b"/><path d="M225.487 122.859c1.775 11.554-10.48 23.024-27.373 25.62-16.893 2.597-32.027-4.665-33.802-16.218-1.776-11.553 10.479-23.024 27.372-25.62s32.027 4.665 33.803 16.218" fill="#1976d2"/><path d="M308.91 110.038c1.775 11.554-10.48 23.024-27.373 25.621-16.893 2.596-32.027-4.666-33.802-16.219-1.776-11.553 10.479-23.024 27.372-25.62s32.027 4.665 33.803 16.218" fill="#c0ca33"/><path d="M393.238 76.185c-2.218 0-4.5.171-6.813.526-16.894 2.597-29.148 14.067-27.373 25.62 1.533 9.972 13.014 16.745 26.99 16.745 2.217 0 4.5-.17 6.813-.526 16.893-2.596 29.148-14.067 27.372-25.62-1.532-9.97-13.013-16.745-26.989-16.745m.001 0v9c9.36 0 17.308 4.002 18.093 9.112.872 5.676-7.429 13.45-19.844 15.357a35.85 35.85 0 01-5.447.422c-9.36 0-17.308-4.002-18.094-9.112-.872-5.675 7.43-13.449 19.845-15.357a35.965 35.965 0 015.446-.422z" fill="#c2185b"/><path d="M388.249 158.092c.584 3.806-3.452 7.584-9.017 8.439-5.564.855-10.55-1.537-11.134-5.342s3.452-7.584 9.017-8.44c5.564-.854 10.549 1.537 11.134 5.343" fill="#ff5722"/><path d="M411.714 154.485c.585 3.806-3.452 7.584-9.016 8.44-5.565.854-10.549-1.537-11.134-5.343-.585-3.805 3.451-7.584 9.016-8.439 5.564-.855 10.55 1.536 11.134 5.342" fill="#1e272b"/><path d="M156.276 190.683c1.617 10.523-10.766 21.158-27.66 23.754-16.892 2.596-31.898-3.83-33.515-14.354s10.766-21.158 27.659-23.754 31.899 3.83 33.516 14.353" fill="#7cb342"/><path d="M239.699 177.862c1.617 10.523-10.766 21.158-27.66 23.754-16.892 2.597-31.898-3.83-33.515-14.353s10.766-21.158 27.659-23.754 31.899 3.83 33.516 14.353" fill="#1e272b"/><path d="M360.493 443.737l-126.109 19.38-11.656-75.838 126.11-19.38z" fill="#90a4ae"/><g fill="#263238"><path d="M136.972 303.74l-25.579 3.93c-1.766.272-3.38-.7-3.607-2.169l-1.635-10.643c-.226-1.47 1.022-2.88 2.788-3.152l25.58-3.93c1.765-.273 3.38.698 3.605 2.168l1.636 10.643c.226 1.47-1.022 2.881-2.788 3.152M133.701 282.454l-25.58 3.93c-1.766.272-3.38-.7-3.606-2.169l-.818-5.321c-.225-1.47 1.023-2.88 2.79-3.152l25.577-3.931c1.766-.272 3.381.7 3.607 2.169l.818 5.322c.226 1.469-1.023 2.88-2.788 3.152M165.675 277.54l-19.185 2.948c-1.765.272-3.38-.7-3.606-2.17l-.817-5.321c-.226-1.47 1.022-2.881 2.788-3.152l19.184-2.95c1.766-.27 3.38.7 3.607 2.17l.818 5.323c.225 1.469-1.023 2.88-2.79 3.152M197.649 272.626l-19.185 2.948c-1.766.272-3.38-.7-3.606-2.17l-.818-5.321c-.226-1.47 1.023-2.88 2.789-3.152l19.184-2.95c1.766-.27 3.381.702 3.607 2.17l.818 5.323c.224 1.469-1.024 2.88-2.789 3.152M229.622 267.712l-19.184 2.948c-1.766.272-3.381-.699-3.607-2.169l-.817-5.322c-.226-1.47 1.022-2.88 2.788-3.152l19.184-2.949c1.766-.27 3.38.7 3.607 2.17l.818 5.322c.226 1.468-1.023 2.881-2.79 3.152M261.596 262.798l-19.184 2.948c-1.766.272-3.38-.699-3.607-2.169l-.817-5.322c-.226-1.47 1.023-2.88 2.789-3.152l19.184-2.949c1.766-.27 3.38.7 3.606 2.17l.818 5.322c.225 1.47-1.023 2.881-2.79 3.152M293.57 257.884l-19.186 2.95c-1.766.27-3.38-.7-3.606-2.17l-.818-5.322c-.225-1.47 1.023-2.88 2.79-3.153l19.183-2.948c1.766-.272 3.381.7 3.607 2.17l.818 5.321c.225 1.47-1.023 2.881-2.789 3.152M325.543 252.97l-19.184 2.949c-1.766.272-3.381-.7-3.607-2.17l-.817-5.321c-.226-1.47 1.022-2.881 2.788-3.152l19.184-2.95c1.766-.27 3.381.7 3.607 2.17l.818 5.323c.226 1.469-1.023 2.88-2.789 3.152M357.517 248.056l-19.185 2.948c-1.766.273-3.38-.698-3.606-2.168l-.818-5.322c-.226-1.47 1.023-2.88 2.79-3.153l19.183-2.947c1.766-.272 3.381.7 3.607 2.169l.818 5.322c.225 1.469-1.023 2.88-2.789 3.152M389.49 243.143l-19.184 2.949c-1.766.27-3.38-.7-3.606-2.17l-.818-5.321c-.225-1.47 1.023-2.881 2.789-3.153l19.184-2.948c1.766-.272 3.38.7 3.607 2.169l.818 5.322c.226 1.469-1.023 2.88-2.79 3.152M427.86 237.246l-25.58 3.931c-1.766.272-3.38-.7-3.606-2.169l-.818-5.322c-.226-1.47 1.023-2.881 2.79-3.152l25.578-3.932c1.766-.271 3.38.701 3.606 2.17l.818 5.322c.225 1.469-1.023 2.881-2.789 3.152M175.489 341.396l-57.553 8.845c-1.766.272-3.381-.699-3.607-2.169l-1.635-10.643c-.226-1.47 1.022-2.88 2.788-3.152l57.553-8.845c1.766-.27 3.38.7 3.606 2.17l1.636 10.642c.226 1.47-1.023 2.881-2.788 3.152M159.427 322.076l-44.763 6.88c-1.766.271-3.38-.7-3.607-2.17l-1.635-10.643c-.226-1.469 1.022-2.88 2.788-3.152l44.763-6.879c1.767-.272 3.381.7 3.607 2.17l1.636 10.642c.226 1.47-1.023 2.881-2.789 3.152M165.97 364.648l-44.763 6.879c-1.766.27-3.381-.7-3.607-2.17l-1.635-10.642c-.226-1.47 1.023-2.881 2.789-3.152l44.763-6.88c1.766-.271 3.38.7 3.606 2.17l1.636 10.643c.226 1.469-1.023 2.88-2.79 3.152M200.92 293.911l-19.185 2.949c-1.766.271-3.38-.7-3.606-2.17l-1.635-10.643c-.226-1.469 1.022-2.88 2.788-3.152l19.184-2.948c1.767-.271 3.381.7 3.607 2.169l1.636 10.643c.225 1.47-1.023 2.881-2.789 3.152M168.946 298.825l-19.185 2.948c-1.766.272-3.38-.699-3.606-2.169l-1.636-10.643c-.225-1.469 1.023-2.88 2.79-3.152l19.183-2.948c1.767-.272 3.381.7 3.607 2.17l1.636 10.642c.225 1.47-1.024 2.881-2.789 3.152M232.893 288.998l-19.185 2.948c-1.766.271-3.38-.7-3.606-2.17l-1.636-10.643c-.225-1.468 1.023-2.88 2.79-3.151l19.183-2.948c1.767-.272 3.381.699 3.607 2.169l1.636 10.643c.225 1.469-1.023 2.88-2.789 3.152M264.867 284.083l-19.184 2.948c-1.766.272-3.38-.699-3.606-2.169l-1.636-10.643c-.225-1.469 1.023-2.88 2.789-3.152l19.184-2.948c1.766-.272 3.38.7 3.607 2.17l1.636 10.642c.225 1.47-1.024 2.881-2.79 3.152M296.84 279.17l-19.184 2.948c-1.766.272-3.38-.7-3.606-2.17l-1.636-10.642c-.225-1.47 1.023-2.881 2.789-3.152l19.184-2.948c1.767-.272 3.38.699 3.607 2.169l1.636 10.643c.225 1.469-1.023 2.88-2.79 3.152M328.815 274.256l-19.185 2.948c-1.766.272-3.38-.7-3.606-2.17l-1.636-10.642c-.225-1.47 1.023-2.881 2.789-3.152l19.183-2.948c1.767-.272 3.381.699 3.607 2.169l1.637 10.643c.226 1.469-1.023 2.88-2.79 3.152M360.788 269.342l-19.184 2.948c-1.766.272-3.38-.699-3.607-2.169l-1.635-10.643c-.226-1.469 1.022-2.88 2.788-3.152l19.185-2.948c1.766-.272 3.38.7 3.606 2.17l1.636 10.642c.226 1.47-1.023 2.881-2.789 3.152M392.762 264.428l-19.185 2.948c-1.766.272-3.38-.699-3.606-2.169l-1.636-10.643c-.225-1.469 1.023-2.88 2.79-3.152l19.183-2.948c1.767-.272 3.381.7 3.607 2.17l1.636 10.642c.225 1.47-1.023 2.881-2.789 3.152M431.13 258.531l-25.578 3.931c-1.766.272-3.38-.7-3.606-2.169l-1.636-10.643c-.226-1.47 1.023-2.88 2.789-3.152l25.578-3.93c1.767-.272 3.38.7 3.607 2.168l1.636 10.643c.225 1.47-1.024 2.881-2.79 3.152M191.4 317.163l-19.183 2.948c-1.766.272-3.381-.7-3.607-2.17l-1.635-10.642c-.226-1.47 1.022-2.881 2.788-3.152l19.185-2.948c1.766-.272 3.38.699 3.606 2.169l1.636 10.643c.226 1.468-1.023 2.88-2.79 3.151M223.375 312.248l-19.185 2.948c-1.766.272-3.38-.699-3.606-2.169l-1.636-10.643c-.225-1.469 1.023-2.88 2.789-3.152l19.184-2.948c1.767-.272 3.381.7 3.607 2.17l1.636 10.642c.225 1.47-1.023 2.881-2.789 3.152M255.349 307.334l-19.185 2.95c-1.766.27-3.38-.7-3.606-2.17l-1.635-10.644c-.226-1.469 1.022-2.88 2.788-3.152l19.184-2.948c1.767-.272 3.38.7 3.607 2.17l1.636 10.642c.226 1.47-1.023 2.881-2.79 3.152M287.322 302.42l-19.184 2.949c-1.766.272-3.38-.7-3.607-2.17l-1.635-10.642c-.226-1.47 1.022-2.881 2.788-3.152l19.185-2.948c1.766-.272 3.38.699 3.606 2.169l1.636 10.643c.226 1.469-1.023 2.88-2.789 3.152M319.296 297.507l-19.185 2.948c-1.766.272-3.38-.7-3.606-2.17l-1.636-10.642c-.225-1.47 1.023-2.881 2.79-3.152l19.183-2.948c1.767-.272 3.381.699 3.607 2.169l1.636 10.643c.225 1.469-1.023 2.88-2.789 3.152M351.27 292.593l-19.185 2.949c-1.766.27-3.38-.7-3.606-2.17l-1.635-10.643c-.226-1.47 1.022-2.88 2.788-3.152l19.184-2.948c1.767-.271 3.381.7 3.607 2.169l1.636 10.643c.226 1.47-1.023 2.88-2.789 3.152M383.244 287.68l-19.184 2.947c-1.766.272-3.381-.699-3.607-2.169l-1.635-10.643c-.226-1.469 1.022-2.88 2.788-3.152l19.185-2.948c1.766-.272 3.38.7 3.606 2.17l1.636 10.642c.226 1.47-1.023 2.881-2.79 3.152M434.402 279.817l-38.37 5.896c-1.765.272-3.38-.7-3.605-2.17l-1.636-10.642c-.225-1.47 1.023-2.88 2.789-3.152l38.369-5.896c1.766-.272 3.38.699 3.606 2.169l1.636 10.643c.225 1.469-1.023 2.88-2.79 3.152M207.462 336.483l-19.184 2.948c-1.766.272-3.38-.7-3.607-2.17l-1.635-10.642c-.226-1.47 1.022-2.881 2.788-3.152l19.185-2.948c1.766-.272 3.38.699 3.606 2.169l1.636 10.643c.225 1.469-1.023 2.88-2.789 3.152M214.005 379.054l-19.184 2.948c-1.766.272-3.381-.7-3.607-2.17l-1.635-10.642c-.226-1.47 1.022-2.881 2.788-3.152l19.185-2.948c1.766-.272 3.38.699 3.606 2.169l1.636 10.643c.225 1.469-1.023 2.88-2.79 3.152M373.873 354.484l-19.184 2.948c-1.766.272-3.38-.699-3.607-2.169l-1.635-10.643c-.226-1.469 1.022-2.88 2.788-3.152l19.185-2.948c1.766-.272 3.38.7 3.606 2.17l1.636 10.642c.226 1.47-1.023 2.881-2.789 3.152M239.436 331.569l-19.185 2.949c-1.766.27-3.38-.7-3.606-2.17l-1.635-10.643c-.226-1.47 1.022-2.881 2.788-3.152l19.184-2.948c1.767-.272 3.38.699 3.607 2.169l1.636 10.643c.226 1.469-1.023 2.88-2.79 3.152M271.41 326.655l-19.185 2.948c-1.766.272-3.38-.699-3.606-2.169l-1.636-10.643c-.225-1.469 1.023-2.88 2.79-3.152l19.183-2.949c1.766-.27 3.381.7 3.607 2.17l1.636 10.643c.225 1.47-1.024 2.881-2.79 3.152M303.383 321.741l-19.185 2.948c-1.766.272-3.38-.699-3.606-2.169l-1.636-10.643c-.225-1.469 1.023-2.88 2.79-3.152l19.183-2.948c1.767-.272 3.381.7 3.607 2.17l1.636 10.642c.225 1.47-1.023 2.881-2.789 3.152M335.357 316.827l-19.185 2.949c-1.766.271-3.38-.7-3.606-2.17l-1.635-10.643c-.226-1.469 1.022-2.88 2.788-3.152l19.184-2.948c1.767-.271 3.381.7 3.607 2.169l1.636 10.643c.226 1.469-1.023 2.881-2.789 3.152M367.33 311.913l-19.183 2.948c-1.766.272-3.381-.699-3.607-2.169l-1.635-10.643c-.226-1.469 1.022-2.88 2.788-3.152l19.185-2.948c1.766-.272 3.38.7 3.606 2.17l1.636 10.642c.226 1.47-1.023 2.881-2.79 3.152M399.305 307l-19.185 2.947c-1.766.272-3.38-.699-3.606-2.169l-1.636-10.643c-.225-1.469 1.023-2.88 2.789-3.152l19.184-2.948c1.767-.272 3.38.7 3.607 2.17l1.636 10.642c.225 1.47-1.023 2.881-2.79 3.152M437.673 301.103l-25.579 3.93c-1.766.272-3.38-.7-3.606-2.168l-1.636-10.643c-.225-1.47 1.023-2.881 2.79-3.152l25.577-3.931c1.767-.272 3.381.699 3.607 2.169l1.636 10.643c.225 1.469-1.023 2.88-2.789 3.152M197.944 359.734l-19.185 2.948c-1.766.272-3.38-.7-3.606-2.17l-1.636-10.642c-.225-1.47 1.023-2.881 2.789-3.152l19.184-2.948c1.767-.272 3.38.699 3.607 2.169l1.636 10.643c.225 1.469-1.023 2.88-2.79 3.152M150.058 388.881l-25.58 3.931c-1.766.272-3.38-.7-3.606-2.169L119.236 380c-.226-1.47 1.023-2.88 2.789-3.152l25.578-3.93c1.767-.273 3.38.698 3.607 2.168l1.636 10.643c.226 1.47-1.023 2.881-2.788 3.152M405.847 349.57l-19.185 2.948c-1.766.272-3.38-.699-3.606-2.169l-1.636-10.643c-.225-1.469 1.023-2.88 2.79-3.152l19.183-2.948c1.767-.272 3.381.7 3.607 2.17l1.636 10.642c.225 1.47-1.023 2.881-2.789 3.152M444.216 343.674l-25.58 3.93c-1.765.272-3.38-.7-3.605-2.168l-1.636-10.643c-.225-1.47 1.023-2.881 2.789-3.152l25.578-3.931c1.767-.272 3.38.699 3.607 2.169l1.636 10.643c.225 1.469-1.023 2.88-2.79 3.152M182.031 383.967l-19.185 2.95c-1.766.27-3.38-.7-3.606-2.17l-1.636-10.644c-.225-1.469 1.023-2.88 2.79-3.152l19.183-2.948c1.767-.27 3.381.7 3.607 2.17l1.636 10.642c.225 1.47-1.024 2.881-2.789 3.152M229.917 354.82l-19.185 2.948c-1.766.272-3.38-.7-3.606-2.17l-1.636-10.642c-.225-1.47 1.023-2.881 2.79-3.152l19.183-2.948c1.767-.272 3.381.699 3.607 2.169l1.636 10.643c.226 1.469-1.023 2.88-2.789 3.152M261.891 349.906l-19.184 2.948c-1.766.272-3.38-.699-3.607-2.169l-1.635-10.643c-.226-1.469 1.022-2.88 2.788-3.152l19.185-2.948c1.766-.272 3.38.7 3.606 2.17l1.636 10.642c.226 1.47-1.023 2.881-2.789 3.152M341.9 359.398l-115.105 17.69c-1.767.27-3.382-.7-3.607-2.17l-1.636-10.642c-.226-1.47 1.022-2.881 2.788-3.152l115.106-17.69c1.766-.272 3.381.699 3.607 2.169l1.637 10.643c.225 1.47-1.024 2.88-2.79 3.152M293.865 344.992l-19.185 2.948c-1.766.272-3.38-.699-3.606-2.169l-1.636-10.643c-.225-1.469 1.023-2.88 2.79-3.152l19.183-2.948c1.767-.272 3.381.7 3.607 2.17l1.636 10.642c.225 1.47-1.023 2.881-2.789 3.152M325.839 340.078l-19.185 2.949c-1.766.271-3.38-.7-3.606-2.17l-1.636-10.643c-.225-1.469 1.023-2.881 2.789-3.152l19.184-2.948c1.767-.272 3.38.699 3.607 2.169l1.636 10.643c.226 1.469-1.023 2.881-2.79 3.152M357.813 335.164l-19.184 2.948c-1.766.272-3.381-.699-3.607-2.169l-1.635-10.643c-.226-1.469 1.022-2.88 2.788-3.152l19.185-2.948c1.766-.272 3.38.7 3.606 2.17l1.636 10.642c.226 1.47-1.023 2.881-2.79 3.152M389.787 330.25l-19.185 2.948c-1.766.272-3.38-.699-3.606-2.169l-1.636-10.643c-.225-1.469 1.023-2.88 2.789-3.152l19.184-2.948c1.767-.272 3.38.7 3.607 2.17l1.636 10.642c.225 1.47-1.023 2.881-2.79 3.152M440.945 322.388l-38.37 5.897c-1.765.271-3.38-.7-3.606-2.169l-1.635-10.644c-.226-1.469 1.023-2.88 2.789-3.15l38.368-5.898c1.767-.272 3.38.7 3.607 2.17l1.636 10.642c.225 1.47-1.024 2.881-2.79 3.152"/></g></g></svg>