<svg height="490" viewBox="0 0 507 490" width="507" xmlns="http://www.w3.org/2000/svg" xmlns:xlink="http://www.w3.org/1999/xlink"><mask id="a" fill="#fff"><path d="m.5941.5854h455.1649v287.414411h-455.1649z" fill="#fff" fill-rule="evenodd"/></mask><mask id="b" fill="#fff"><path d="m.00016363.114h489.92352637v266.7221h-489.92352637z" fill="#fff" fill-rule="evenodd"/></mask><g fill="none" fill-rule="evenodd"><path d="m430.3121 231.5104-365.277 56.137c-16.376 2.517-31.692-8.718-34.209-25.095l-30.232-196.716 424.581-65.251 30.232 196.716c2.517 16.376-8.719 31.692-25.095 34.209" fill="#cfd8dc" mask="url(#a)" transform="translate(51 201.886)"/><path d="m476.1749 201.5851-424.581 65.251-50.438-166.897c-4.488-14.851 4.486-29.098 20.141-31.504l442.417-67.993c15.654-2.405 27.338 8.666 26.123 24.394z" fill="#1e272b" mask="url(#b)" transform="translate(0 .886)"/><path d="m453.2891 184.6034-383.312 58.91-41.068-146.953 433.174-66.573z" fill="#263238"/><path d="m142.064 135.6796c1.775 11.554-10.479 23.024-27.373 25.621-16.893 2.596-32.027-4.665-33.802-16.219-1.776-11.553 10.479-23.024 27.372-25.62s32.027 4.665 33.803 16.218" fill="#c2185b"/><path d="m225.4869 122.8588c1.775 11.554-10.479 23.024-27.373 25.621-16.893 2.596-32.027-4.666-33.802-16.219-1.776-11.553 10.479-23.024 27.372-25.62s32.027 4.665 33.803 16.218" fill="#1976d2"/><path d="m308.9097 110.038c1.775 11.554-10.48 23.024-27.373 25.621-16.893 2.596-32.027-4.666-33.802-16.219-1.776-11.553 10.479-23.024 27.372-25.62s32.027 4.665 33.803 16.218" fill="#c0ca33"/><path d="m393.2383 76.1854c-2.218 0-4.5.171-6.813.526-16.894 2.597-29.148 14.067-27.373 25.62 1.533 9.972 13.014 16.745 26.989 16.745 2.218 0 4.5-.17 6.814-.526 16.893-2.596 29.148-14.067 27.372-25.62-1.532-9.971-13.013-16.745-26.989-16.745m.001 0v9c9.36 0 17.308 4.002 18.093 9.112.872 5.676-7.429 13.45-19.844 15.357-1.822.281-3.654.422-5.447.422-9.361 0-17.308-4.002-18.094-9.112-.872-5.675 7.43-13.449 19.845-15.357 1.821-.28 3.654-.422 5.446-.422z" fill="#c2185b"/><path d="m388.2486 158.0917c.584 3.806-3.452 7.584-9.017 8.439-5.564.855-10.549-1.537-11.134-5.342s3.452-7.584 9.017-8.439c5.564-.855 10.549 1.536 11.134 5.342" fill="#ff5722"/><path d="m411.7144 154.4852c.585 3.806-3.452 7.584-9.016 8.439-5.565.855-10.549-1.536-11.134-5.342-.585-3.805 3.451-7.584 9.016-8.439 5.564-.855 10.549 1.536 11.134 5.342" fill="#1e272b"/><path d="m156.2759 190.6825c1.617 10.523-10.766 21.158-27.659 23.754-16.893 2.597-31.899-3.83-33.516-14.353s10.766-21.158 27.659-23.754 31.899 3.83 33.516 14.353" fill="#7cb342"/><path d="m239.6988 177.8617c1.617 10.523-10.766 21.158-27.659 23.754-16.893 2.597-31.899-3.83-33.516-14.353s10.766-21.158 27.659-23.754 31.899 3.83 33.516 14.353" fill="#1e272b"/><path d="m360.4932 443.7367-126.109 19.381-11.656-75.839 126.11-19.38z" fill="#90a4ae"/><g fill="#263238"><path d="m136.9722 303.7391-25.579 3.931c-1.766.272-3.381-.7-3.607-2.169l-1.635-10.643c-.226-1.47 1.022-2.881 2.788-3.152l25.579-3.931c1.766-.272 3.381.699 3.606 2.169l1.636 10.643c.226 1.469-1.022 2.881-2.788 3.152"/><path d="m133.7012 282.4535-25.58 3.931c-1.766.272-3.38-.7-3.606-2.169l-.818-5.322c-.225-1.469 1.023-2.88 2.789-3.152l25.578-3.931c1.766-.272 3.381.7 3.607 2.169l.818 5.322c.226 1.469-1.023 2.881-2.788 3.152"/><path d="m165.6749 277.5399-19.185 2.948c-1.765.272-3.38-.699-3.606-2.169l-.817-5.322c-.226-1.47 1.022-2.881 2.788-3.152l19.184-2.949c1.766-.271 3.381.7 3.607 2.17l.818 5.322c.225 1.469-1.023 2.881-2.789 3.152"/><path d="m197.649 272.6259-19.185 2.948c-1.766.272-3.38-.699-3.606-2.169l-.818-5.322c-.226-1.469 1.023-2.88 2.789-3.152l19.184-2.949c1.766-.271 3.381.701 3.607 2.17l.818 5.322c.224 1.469-1.024 2.881-2.789 3.152"/><path d="m229.6216 267.7123-19.184 2.948c-1.766.272-3.381-.699-3.607-2.169l-.817-5.322c-.226-1.47 1.022-2.881 2.788-3.152l19.184-2.949c1.766-.271 3.381.7 3.607 2.17l.818 5.322c.226 1.468-1.023 2.881-2.789 3.152"/><path d="m261.5958 262.7982-19.184 2.948c-1.766.272-3.38-.699-3.607-2.169l-.817-5.322c-.226-1.47 1.023-2.881 2.789-3.152l19.184-2.949c1.766-.271 3.381.7 3.606 2.17l.818 5.322c.225 1.469-1.023 2.881-2.789 3.152"/><path d="m293.5694 257.8842-19.185 2.949c-1.766.271-3.38-.7-3.606-2.17l-.818-5.321c-.225-1.47 1.023-2.881 2.789-3.153l19.184-2.948c1.766-.272 3.381.7 3.607 2.169l.818 5.322c.225 1.469-1.023 2.881-2.789 3.152"/><path d="m325.543 252.9706-19.184 2.948c-1.766.272-3.381-.699-3.607-2.169l-.817-5.322c-.226-1.47 1.022-2.881 2.788-3.152l19.184-2.949c1.766-.271 3.381.7 3.607 2.17l.818 5.322c.226 1.469-1.023 2.881-2.789 3.152"/><path d="m357.5172 248.0565-19.185 2.948c-1.766.272-3.38-.699-3.606-2.169l-.818-5.321c-.226-1.47 1.023-2.881 2.789-3.153l19.184-2.948c1.766-.272 3.381.7 3.607 2.169l.818 5.322c.225 1.469-1.023 2.881-2.789 3.152"/><path d="m389.4908 243.1425-19.185 2.949c-1.766.271-3.38-.7-3.606-2.17l-.818-5.321c-.225-1.47 1.023-2.881 2.789-3.153l19.184-2.948c1.766-.272 3.381.7 3.607 2.169l.818 5.322c.226 1.469-1.023 2.881-2.789 3.152"/><path d="m427.8594 237.246-25.579 3.931c-1.766.272-3.38-.7-3.606-2.169l-.818-5.322c-.226-1.47 1.023-2.881 2.789-3.152l25.579-3.932c1.766-.271 3.38.701 3.606 2.17l.818 5.322c.225 1.469-1.023 2.881-2.789 3.152"/><path d="m175.4888 341.3964-57.553 8.845c-1.766.272-3.381-.699-3.607-2.169l-1.635-10.643c-.226-1.47 1.022-2.881 2.788-3.152l57.553-8.845c1.766-.271 3.38.7 3.606 2.17l1.636 10.642c.226 1.469-1.023 2.881-2.788 3.152"/><path d="m159.4273 322.0761-44.763 6.879c-1.766.272-3.381-.699-3.607-2.169l-1.635-10.643c-.226-1.469 1.022-2.88 2.788-3.152l44.763-6.879c1.767-.272 3.381.699 3.607 2.169l1.636 10.643c.226 1.469-1.023 2.881-2.789 3.152"/><path d="m165.9698 364.6478-44.763 6.879c-1.766.271-3.381-.7-3.607-2.169l-1.635-10.643c-.226-1.47 1.023-2.881 2.789-3.152l44.763-6.879c1.766-.272 3.38.699 3.606 2.169l1.636 10.643c.226 1.469-1.023 2.881-2.789 3.152"/><path d="m200.92 293.911-19.185 2.949c-1.766.271-3.38-.7-3.606-2.17l-1.635-10.643c-.226-1.469 1.022-2.88 2.788-3.152l19.184-2.948c1.767-.271 3.381.7 3.607 2.169l1.636 10.643c.225 1.47-1.023 2.881-2.789 3.152"/><path d="m168.9463 298.8251-19.185 2.948c-1.766.272-3.38-.699-3.606-2.169l-1.636-10.643c-.225-1.469 1.023-2.881 2.789-3.152l19.184-2.948c1.767-.272 3.381.699 3.607 2.169l1.636 10.643c.225 1.469-1.024 2.881-2.789 3.152"/><path d="m232.8931 288.9975-19.185 2.948c-1.766.272-3.38-.699-3.606-2.169l-1.636-10.643c-.225-1.469 1.023-2.881 2.789-3.152l19.184-2.948c1.767-.272 3.381.699 3.607 2.169l1.636 10.643c.225 1.469-1.023 2.881-2.789 3.152"/><path d="m264.8668 284.0834-19.184 2.948c-1.766.272-3.38-.699-3.606-2.169l-1.636-10.643c-.225-1.469 1.023-2.881 2.789-3.152l19.184-2.948c1.766-.272 3.381.699 3.607 2.169l1.636 10.643c.225 1.47-1.024 2.881-2.79 3.152"/><path d="m296.8409 279.1698-19.185 2.948c-1.766.272-3.38-.699-3.606-2.169l-1.636-10.643c-.225-1.469 1.023-2.881 2.789-3.152l19.184-2.948c1.767-.272 3.381.699 3.607 2.169l1.636 10.643c.225 1.469-1.023 2.881-2.789 3.152"/><path d="m328.8145 274.2558-19.185 2.948c-1.766.272-3.38-.699-3.606-2.169l-1.636-10.643c-.225-1.469 1.023-2.881 2.789-3.152l19.184-2.948c1.767-.272 3.381.699 3.607 2.169l1.636 10.643c.226 1.469-1.023 2.881-2.789 3.152"/><path d="m360.7881 269.3422-19.184 2.948c-1.766.272-3.381-.699-3.607-2.169l-1.635-10.643c-.226-1.469 1.022-2.881 2.788-3.152l19.185-2.948c1.766-.272 3.38.699 3.606 2.169l1.636 10.643c.226 1.469-1.023 2.881-2.789 3.152"/><path d="m392.7623 264.4281-19.185 2.948c-1.766.272-3.38-.699-3.606-2.169l-1.636-10.643c-.225-1.469 1.023-2.881 2.789-3.152l19.184-2.948c1.767-.272 3.381.699 3.607 2.169l1.636 10.643c.225 1.469-1.023 2.881-2.789 3.152"/><path d="m431.1309 258.5311-25.579 3.931c-1.766.272-3.38-.7-3.606-2.169l-1.636-10.643c-.226-1.47 1.023-2.881 2.789-3.152l25.578-3.931c1.767-.271 3.381.7 3.607 2.169l1.636 10.643c.225 1.47-1.024 2.881-2.789 3.152"/><path d="m191.4009 317.1625-19.184 2.948c-1.766.272-3.381-.699-3.607-2.169l-1.635-10.643c-.226-1.469 1.022-2.881 2.788-3.152l19.185-2.948c1.766-.272 3.38.699 3.606 2.169l1.636 10.643c.226 1.469-1.023 2.881-2.789 3.152"/><path d="m223.375 312.2484-19.185 2.948c-1.766.272-3.38-.699-3.606-2.169l-1.636-10.643c-.225-1.469 1.023-2.881 2.789-3.152l19.184-2.948c1.767-.272 3.381.699 3.607 2.169l1.636 10.643c.225 1.469-1.023 2.881-2.789 3.152"/><path d="m255.3487 307.3344-19.185 2.949c-1.766.271-3.38-.7-3.606-2.17l-1.635-10.643c-.226-1.469 1.022-2.881 2.788-3.152l19.184-2.948c1.767-.272 3.381.699 3.607 2.169l1.636 10.643c.226 1.469-1.023 2.881-2.789 3.152"/><path d="m287.3223 302.4208-19.184 2.948c-1.766.272-3.381-.699-3.607-2.169l-1.635-10.643c-.226-1.469 1.022-2.881 2.788-3.152l19.185-2.948c1.766-.272 3.38.699 3.606 2.169l1.636 10.643c.226 1.469-1.023 2.881-2.789 3.152"/><path d="m319.2964 297.5067-19.185 2.948c-1.766.272-3.38-.699-3.606-2.169l-1.636-10.643c-.225-1.469 1.023-2.881 2.789-3.152l19.184-2.948c1.767-.272 3.381.699 3.607 2.169l1.636 10.643c.225 1.469-1.023 2.881-2.789 3.152"/><path d="m351.2701 292.5927-19.185 2.949c-1.766.271-3.38-.7-3.606-2.17l-1.635-10.643c-.226-1.469 1.022-2.88 2.788-3.152l19.184-2.948c1.767-.271 3.381.7 3.607 2.169l1.636 10.643c.226 1.47-1.023 2.881-2.789 3.152"/><path d="m383.2437 287.6791-19.184 2.948c-1.766.272-3.381-.699-3.607-2.169l-1.635-10.643c-.226-1.469 1.022-2.881 2.788-3.152l19.185-2.948c1.766-.272 3.38.699 3.606 2.169l1.636 10.643c.226 1.469-1.023 2.881-2.789 3.152"/><path d="m434.4019 279.8168-38.369 5.896c-1.766.272-3.38-.699-3.606-2.169l-1.636-10.643c-.225-1.469 1.023-2.88 2.789-3.152l38.369-5.896c1.766-.272 3.38.699 3.606 2.169l1.636 10.643c.225 1.469-1.023 2.881-2.789 3.152"/><path d="m207.4624 336.4828-19.184 2.948c-1.766.272-3.381-.699-3.607-2.169l-1.635-10.643c-.226-1.469 1.022-2.881 2.788-3.152l19.185-2.948c1.766-.272 3.38.699 3.606 2.169l1.636 10.643c.225 1.469-1.023 2.881-2.789 3.152"/><path d="m214.0049 379.0536-19.184 2.948c-1.766.272-3.381-.699-3.607-2.169l-1.635-10.643c-.226-1.469 1.022-2.881 2.788-3.152l19.185-2.948c1.766-.272 3.38.699 3.606 2.169l1.636 10.643c.225 1.469-1.023 2.881-2.789 3.152"/><path d="m373.8731 354.4843-19.184 2.948c-1.766.272-3.381-.699-3.607-2.169l-1.635-10.643c-.226-1.469 1.022-2.881 2.788-3.152l19.185-2.948c1.766-.272 3.38.699 3.606 2.169l1.636 10.643c.226 1.469-1.023 2.881-2.789 3.152"/><path d="m239.4356 331.5687-19.185 2.949c-1.766.271-3.38-.7-3.606-2.17l-1.635-10.643c-.226-1.469 1.022-2.881 2.788-3.152l19.184-2.948c1.767-.272 3.381.699 3.607 2.169l1.636 10.643c.226 1.469-1.023 2.881-2.789 3.152"/><path d="m271.4092 326.6552-19.184 2.948c-1.766.272-3.38-.699-3.606-2.169l-1.636-10.643c-.225-1.469 1.023-2.881 2.789-3.152l19.184-2.949c1.766-.271 3.381.7 3.607 2.17l1.636 10.643c.225 1.469-1.024 2.881-2.79 3.152"/><path d="m303.3834 321.7411-19.185 2.948c-1.766.272-3.38-.699-3.606-2.169l-1.636-10.643c-.225-1.469 1.023-2.881 2.789-3.152l19.184-2.948c1.767-.272 3.381.699 3.607 2.169l1.636 10.643c.225 1.469-1.023 2.881-2.789 3.152"/><path d="m335.357 316.827-19.185 2.949c-1.766.271-3.38-.7-3.606-2.17l-1.635-10.643c-.226-1.469 1.022-2.88 2.788-3.152l19.184-2.948c1.767-.271 3.381.7 3.607 2.169l1.636 10.643c.226 1.469-1.023 2.881-2.789 3.152"/><path d="m367.3306 311.9135-19.184 2.948c-1.766.272-3.381-.699-3.607-2.169l-1.635-10.643c-.226-1.469 1.022-2.881 2.788-3.152l19.185-2.948c1.766-.272 3.38.699 3.606 2.169l1.636 10.643c.226 1.469-1.023 2.881-2.789 3.152"/><path d="m399.3047 306.9994-19.185 2.948c-1.766.272-3.38-.699-3.606-2.169l-1.636-10.643c-.225-1.469 1.023-2.881 2.789-3.152l19.184-2.948c1.767-.272 3.381.699 3.607 2.169l1.636 10.643c.225 1.469-1.023 2.881-2.789 3.152"/><path d="m437.6734 301.1029-25.579 3.931c-1.766.271-3.38-.7-3.606-2.169l-1.636-10.643c-.225-1.47 1.023-2.881 2.789-3.152l25.578-3.931c1.767-.272 3.381.699 3.607 2.169l1.636 10.643c.225 1.469-1.023 2.881-2.789 3.152"/><path d="m197.9439 359.7338-19.185 2.948c-1.766.272-3.38-.699-3.606-2.169l-1.636-10.643c-.225-1.469 1.023-2.881 2.789-3.152l19.184-2.948c1.767-.272 3.381.699 3.607 2.169l1.636 10.643c.225 1.469-1.023 2.881-2.789 3.152"/><path d="m150.0577 388.8812-25.58 3.931c-1.766.272-3.38-.7-3.606-2.169l-1.636-10.643c-.226-1.47 1.023-2.881 2.789-3.152l25.578-3.931c1.767-.272 3.381.699 3.607 2.169l1.636 10.643c.226 1.469-1.023 2.881-2.788 3.152"/><path d="m405.8472 349.5702-19.185 2.948c-1.766.272-3.38-.699-3.606-2.169l-1.636-10.643c-.225-1.469 1.023-2.881 2.789-3.152l19.184-2.948c1.767-.272 3.381.699 3.607 2.169l1.636 10.643c.225 1.469-1.023 2.881-2.789 3.152"/><path d="m444.2159 343.6737-25.579 3.931c-1.766.271-3.38-.7-3.606-2.169l-1.636-10.643c-.225-1.47 1.023-2.881 2.789-3.152l25.578-3.931c1.767-.272 3.381.699 3.607 2.169l1.636 10.643c.225 1.469-1.023 2.881-2.789 3.152"/><path d="m182.0313 383.9672-19.185 2.949c-1.766.271-3.38-.7-3.606-2.17l-1.636-10.643c-.225-1.469 1.023-2.881 2.789-3.152l19.184-2.948c1.767-.271 3.381.699 3.607 2.169l1.636 10.643c.225 1.47-1.024 2.881-2.789 3.152"/><path d="m229.9175 354.8197-19.185 2.948c-1.766.272-3.38-.699-3.606-2.169l-1.636-10.643c-.225-1.469 1.023-2.881 2.789-3.152l19.184-2.948c1.767-.272 3.381.699 3.607 2.169l1.636 10.643c.226 1.469-1.023 2.881-2.789 3.152"/><path d="m261.8912 349.9061-19.184 2.948c-1.766.272-3.381-.699-3.607-2.169l-1.635-10.643c-.226-1.469 1.022-2.881 2.788-3.152l19.185-2.948c1.766-.272 3.38.699 3.606 2.169l1.636 10.643c.226 1.469-1.023 2.881-2.789 3.152"/><path d="m341.8995 359.3978-115.105 17.69c-1.766.271-3.381-.7-3.606-2.17l-1.636-10.642c-.226-1.47 1.022-2.881 2.788-3.152l115.106-17.69c1.766-.272 3.381.699 3.607 2.169l1.636 10.643c.225 1.47-1.024 2.881-2.79 3.152"/><path d="m293.8653 344.9921-19.185 2.948c-1.766.272-3.38-.699-3.606-2.169l-1.636-10.643c-.225-1.469 1.023-2.881 2.789-3.152l19.184-2.948c1.767-.272 3.381.699 3.607 2.169l1.636 10.643c.225 1.469-1.023 2.881-2.789 3.152"/><path d="m325.8389 340.078-19.185 2.949c-1.766.271-3.38-.7-3.606-2.17l-1.636-10.643c-.225-1.469 1.023-2.881 2.789-3.152l19.184-2.948c1.767-.272 3.381.699 3.607 2.169l1.636 10.643c.226 1.469-1.023 2.881-2.789 3.152"/><path d="m357.8126 335.1644-19.184 2.948c-1.766.272-3.381-.699-3.607-2.169l-1.635-10.643c-.226-1.469 1.022-2.881 2.788-3.152l19.185-2.948c1.766-.272 3.38.699 3.606 2.169l1.636 10.643c.226 1.469-1.023 2.881-2.789 3.152"/><path d="m389.7867 330.2504-19.185 2.948c-1.766.272-3.38-.699-3.606-2.169l-1.636-10.643c-.225-1.469 1.023-2.881 2.789-3.152l19.184-2.948c1.767-.272 3.381.699 3.607 2.169l1.636 10.643c.225 1.469-1.023 2.881-2.789 3.152"/><path d="m440.9449 322.3881-38.369 5.897c-1.766.271-3.381-.7-3.607-2.169l-1.635-10.644c-.226-1.469 1.023-2.88 2.789-3.151l38.368-5.897c1.767-.272 3.381.699 3.607 2.169l1.636 10.643c.225 1.47-1.024 2.881-2.789 3.152"/></g></g></svg>