<svg xmlns="http://www.w3.org/2000/svg" viewBox="0 0 361 436"><mask id="a" fill="#fff"><path d="M.973.031h354.233V435H.973z" fill-rule="evenodd"/></mask><mask id="b" fill="#fff"><path d="M0 .026h28.598v16.956H0z" fill-rule="evenodd"/></mask><g fill="none" fill-rule="evenodd"><path d="M355.138 364.856a2.005 2.005 0 01-1.416 2.448l-253.18 67.628a2.007 2.007 0 01-2.448-1.416L1.04 70.174a2.007 2.007 0 011.416-2.448L255.636.098a2.005 2.005 0 012.448 1.416z" fill="#7cb342" mask="url(#a)" transform="rotate(30 180.424 227.712)"/><g fill="#f1f8e9"><path d="M28.598 10.059L2.68 16.982 0 6.949 25.918.026z" mask="url(#b)" transform="rotate(30 31.776 177.882)"/><path d="M105.043 60.318l-25.907-6.964 2.695-10.028 25.907 6.963zM97.15 89.682L71.243 82.72l2.695-10.03 25.907 6.964zM89.257 119.046l-25.907-6.964 2.695-10.028 25.908 6.963zM81.365 148.41l-25.908-6.963 2.696-10.029 25.907 6.964zM73.472 177.774l-25.907-6.963 2.695-10.028 25.908 6.962zM65.58 207.138l-25.908-6.962 2.696-10.03 25.907 6.964zM57.687 236.503l-25.907-6.964 2.695-10.028 25.907 6.963zM49.795 265.867l-25.908-6.963 2.696-10.029 25.907 6.964zM41.902 295.231l-25.907-6.963 2.695-10.028 25.907 6.962zM34.01 324.595l-25.908-6.963 2.695-10.029 25.907 6.964zM26.117 353.96L.209 346.996l2.695-10.028 25.908 6.963z"/></g><path d="M286.465 162.733c-7.212 26.83-34.808 42.735-61.64 35.523-26.83-7.211-42.735-34.808-35.524-61.639s34.81-42.735 61.64-35.523 42.736 34.808 35.524 61.639" fill="#689f38"/><path d="M162.441 81.49l-28.275 105.198 105.198 28.277.143-.533-77.872-133.158z" fill="#558b2f"/></g></svg>